<svg width="203" height="157" viewBox="0 0 203 157" fill="none" xmlns="http://www.w3.org/2000/svg">
<path d="M172.968 12.4768C160.644 2.29238 144.986 -2.70322 126.968 2.96398C109.161 8.54838 98.595 25.044 82.7848 33.8208C65.9626 43.1634 45.4144 42.2066 27.5388 48.9364C14.9026 53.6928 5.63822 63.96 2.50102 77.1344C-3.63998 102.908 7.96582 130.853 31.1912 143.894C45.672 152.027 63.244 153.499 79.0312 148.457C91.1384 144.584 102.004 137.477 114.083 133.397C135.064 126.308 158.459 129.188 178.759 119.5C200.246 109.252 204.814 87.4568 201.939 66.6004C199.303 47.653 188.939 25.6834 172.968 12.4768Z" fill="#5CB0FF"/>
<path opacity="0.7" d="M172.968 12.4768C160.644 2.29238 144.986 -2.70322 126.968 2.96398C109.161 8.54838 98.595 25.044 82.7848 33.8208C65.9626 43.1634 45.4144 42.2066 27.5388 48.9364C14.9026 53.6928 5.63822 63.96 2.50102 77.1344C-3.63998 102.908 7.96582 130.853 31.1912 143.894C45.672 152.027 63.244 153.499 79.0312 148.457C91.1384 144.584 102.004 137.477 114.083 133.397C135.064 126.308 158.459 129.188 178.759 119.5C200.246 109.252 204.814 87.4568 201.939 66.6004C199.303 47.653 188.939 25.6834 172.968 12.4768Z" fill="white"/>
<path d="M189.566 75.8946L189.592 26.1778L121.944 26.1424L121.918 75.8592L189.566 75.8946Z" fill="white"/>
<path d="M129.3 51.08L155.98 51.54" stroke="#263238" stroke-width="0.5" stroke-linecap="round" stroke-linejoin="round"/>
<path d="M128.84 59.36H159.2" stroke="#263238" stroke-width="0.5" stroke-linecap="round" stroke-linejoin="round"/>
<path d="M132.52 69.02H168.86" stroke="#263238" stroke-width="0.5" stroke-linecap="round" stroke-linejoin="round"/>
<path d="M164.105 36.0196C164.105 36.0196 158.801 37.096 159.224 40.9278C159.647 44.7596 163.709 45.9878 165.908 45.2794C168.107 44.571 168.774 41.5074 167.748 39.189C166.722 36.8706 163.148 36.6958 161.257 39.2764" stroke="#263238" stroke-width="0.5" stroke-linecap="round" stroke-linejoin="round"/>
<path d="M172.389 33.14L169.878 40.017" stroke="#263238" stroke-width="0.5" stroke-linecap="round" stroke-linejoin="round"/>
<path d="M168.479 35.1088L175.54 38.039" stroke="#263238" stroke-width="0.5" stroke-linecap="round" stroke-linejoin="round"/>
<path d="M185.836 79.3765L185.33 83.1163L183.531 79.7583L178.453 49.1912L180.757 48.8094L185.836 79.3765Z" fill="white" stroke="#263238" stroke-width="0.5" stroke-linecap="round" stroke-linejoin="round"/>
<path d="M180.236 48.8915L178.979 49.1003L184.056 79.6672L185.313 79.4584L180.236 48.8915Z" fill="#5CB0FF" stroke="#263238" stroke-width="0.5" stroke-linecap="round" stroke-linejoin="round"/>
<path d="M185.831 79.381L183.536 79.7628L185.33 83.1162L185.831 79.381Z" stroke="#263238" stroke-width="0.5" stroke-linecap="round" stroke-linejoin="round"/>
<path d="M184.433 81.4373L185.33 83.1163L185.583 81.2487L184.433 81.4373Z" fill="#263238" stroke="#263238" stroke-width="0.5" stroke-linecap="round" stroke-linejoin="round"/>
<path d="M179.037 45.5765C178.732 45.6272 178.459 45.7972 178.278 46.0491C178.098 46.301 178.025 46.6141 178.076 46.9197L178.453 49.1921L180.753 48.8103L180.376 46.5379C180.325 46.2333 180.156 45.9611 179.905 45.781C179.654 45.6008 179.342 45.5273 179.037 45.5765Z" fill="white" stroke="#263238" stroke-width="0.5" stroke-linecap="round" stroke-linejoin="round"/>
<path d="M179.037 45.5756C178.732 45.6264 178.459 45.7964 178.278 46.0482C178.098 46.3001 178.025 46.6133 178.076 46.9188L178.26 48.0044L180.56 47.6226L180.38 46.537C180.33 46.2315 180.16 45.9586 179.908 45.7783C179.656 45.598 179.343 45.5251 179.037 45.5756Z" fill="#263238" stroke="#263238" stroke-width="0.5" stroke-linecap="round" stroke-linejoin="round"/>
<path d="M29.3603 80.7867H101.346C102.647 80.7867 103.896 81.3039 104.816 82.2243C105.737 83.1448 106.254 84.3932 106.254 85.695V131.272C106.254 131.977 106.115 132.676 105.845 133.327C105.575 133.979 105.179 134.571 104.68 135.069C104.181 135.568 103.589 135.963 102.937 136.233C102.285 136.502 101.586 136.641 100.881 136.64H29.8203C28.3966 136.64 27.0312 136.074 26.0245 135.068C25.0177 134.061 24.4521 132.695 24.4521 131.272V85.6903C24.4534 84.3894 24.971 83.1422 25.8914 82.2227C26.8117 81.3032 28.0594 80.7867 29.3603 80.7867Z" fill="white" stroke="#263238" stroke-width="0.5" stroke-linecap="round" stroke-linejoin="round"/>
<path d="M55.3319 86.2838H50.7273V89.3106H55.3319V86.2838Z" fill="#263238"/>
<path d="M40.4141 104.941H36.1407V109.183H40.4141V104.941Z" fill="#263238"/>
<path d="M59.2971 90.0328H54.9915V94.274H59.2971V90.0328Z" fill="#263238"/>
<path d="M50.0005 86.2838H45.3959V89.3106H50.0005V86.2838Z" fill="#263238"/>
<path d="M64.334 90.0328H60.0284V94.274H64.334V90.0328Z" fill="#263238"/>
<path d="M60.6633 86.2838H56.0587V89.3106H60.6633V86.2838Z" fill="#263238"/>
<path d="M37.8335 99.9688H29.7329V104.21H37.8335V99.9688Z" fill="#263238"/>
<path d="M49.2277 90.0328H44.9221V94.274H49.2277V90.0328Z" fill="#263238"/>
<path d="M35.4139 104.941H29.7329V109.183H35.4139V104.941Z" fill="#263238"/>
<path d="M65.9992 86.2838H61.3947V89.3106H65.9992V86.2838Z" fill="#263238"/>
<path d="M39.1583 90.0328H34.8527V94.274H39.1583V90.0328Z" fill="#263238"/>
<path d="M39.3376 86.2838H34.733V89.3106H39.3376V86.2838Z" fill="#263238"/>
<path d="M44.6692 86.2838H40.0646V89.3106H44.6692V86.2838Z" fill="#263238"/>
<path d="M44.1954 90.0328H39.8898V94.274H44.1954V90.0328Z" fill="#263238"/>
<path d="M54.2647 90.0328H49.9591V94.274H54.2647V90.0328Z" fill="#263238"/>
<path d="M87.3249 86.2838H82.7203V89.3106H87.3249V86.2838Z" fill="#263238"/>
<path d="M92.6563 86.2838H88.0518V89.3106H92.6563V86.2838Z" fill="#263238"/>
<path d="M89.51 90.0328H85.2043V94.274H89.51V90.0328Z" fill="#263238"/>
<path d="M94.5423 90.0328H90.2367V94.274H94.5423V90.0328Z" fill="#263238"/>
<path d="M102.514 104.941H96.1708V109.183H102.514V104.941Z" fill="#263238"/>
<path d="M97.9878 86.2838H93.3832V89.3106H97.9878V86.2838Z" fill="#263238"/>
<path d="M34.1305 90.0328H29.7329V94.274H34.1305V90.0328Z" fill="#263238"/>
<path d="M71.3307 86.2838H66.7261V89.3106H71.3307V86.2838Z" fill="#263238"/>
<path d="M76.6622 86.2838H72.0576V89.3106H76.6622V86.2838Z" fill="#263238"/>
<path d="M74.4035 90.0328H70.0979V94.274H74.4035V90.0328Z" fill="#263238"/>
<path d="M84.4728 90.0328H80.1672V94.274H84.4728V90.0328Z" fill="#263238"/>
<path d="M69.3711 90.0328H65.0656V94.274H69.3711V90.0328Z" fill="#263238"/>
<path d="M79.4406 90.0328H75.135V94.274H79.4406V90.0328Z" fill="#263238"/>
<path d="M81.9935 86.2838H77.3889V89.3106H81.9935V86.2838Z" fill="#263238"/>
<path d="M75.4293 104.941H71.1559V109.183H75.4293V104.941Z" fill="#263238"/>
<path d="M97.859 99.9688H93.5856V104.21H97.859V99.9688Z" fill="#263238"/>
<path d="M92.8587 99.9688H88.5853V104.21H92.8587V99.9688Z" fill="#263238"/>
<path d="M95.4393 104.941H91.1659V109.183H95.4393V104.941Z" fill="#263238"/>
<path d="M90.4392 104.941H86.1658V109.183H90.4392V104.941Z" fill="#263238"/>
<path d="M80.4342 104.941H76.1608V109.183H80.4342V104.941Z" fill="#263238"/>
<path d="M85.4343 104.941H81.1609V109.183H85.4343V104.941Z" fill="#263238"/>
<path d="M87.854 99.9688H83.5806V104.21H87.854V99.9688Z" fill="#263238"/>
<path d="M82.8537 99.9688H78.5803V104.21H82.8537V99.9688Z" fill="#263238"/>
<path d="M102.514 86.2838H98.7192V89.3106H102.514V86.2838Z" fill="#263238"/>
<path d="M34.0063 86.2838H29.7329V89.3106H34.0063V86.2838Z" fill="#263238"/>
<path d="M102.514 109.909H29.7329V114.321H102.514V109.909Z" fill="#263238"/>
<path d="M102.514 90.0328H95.2738V94.274H102.514V90.0328Z" fill="#263238"/>
<path d="M102.51 99.9688H98.5858V104.21H102.51V99.9688Z" fill="#263238"/>
<path d="M97.3805 99.2144H96.6537V95.0008H92.3757V99.2144H91.6489V95.0008H87.3755V99.2144H86.6487V95.0008H82.3707V99.2144H81.6439V95.0008H77.3705V99.2144H76.6437V95.0008H72.3657V99.2144H71.6389V95.0008H67.3655V99.2144H66.6387V95.0008H62.3607V99.2144H61.6339V95.0008H57.3605V99.2144H56.6337V95.0008H52.3557V99.2144H51.6289V95.0008H47.3555V99.2144H46.6287V95.0008H42.3507V99.2144H41.6239V95.0008H37.3505V99.2144H36.6237V95.0008H29.7329V99.242H102.51V95.0008H97.3805V99.2144Z" fill="#263238"/>
<path d="M62.8437 99.9688H58.5703V104.21H62.8437V99.9688Z" fill="#263238"/>
<path d="M77.8488 99.9688H73.5754V104.21H77.8488V99.9688Z" fill="#263238"/>
<path d="M52.8387 99.9688H48.5653V104.21H52.8387V99.9688Z" fill="#263238"/>
<path d="M55.4239 104.941H51.1505V109.183H55.4239V104.941Z" fill="#263238"/>
<path d="M57.839 99.9688H53.5656V104.21H57.839V99.9688Z" fill="#263238"/>
<path d="M47.834 99.9688H43.5605V104.21H47.834V99.9688Z" fill="#263238"/>
<path d="M45.4189 104.941H41.1455V109.183H45.4189V104.941Z" fill="#263238"/>
<path d="M50.4192 104.941H46.1458V109.183H50.4192V104.941Z" fill="#263238"/>
<path d="M67.844 99.9688H63.5706V104.21H67.844V99.9688Z" fill="#263238"/>
<path d="M70.4292 104.941H66.1558V109.183H70.4292V104.941Z" fill="#263238"/>
<path d="M72.8487 99.9688H68.5753V104.21H72.8487V99.9688Z" fill="#263238"/>
<path d="M60.4242 104.941H56.1508V109.183H60.4242V104.941Z" fill="#263238"/>
<path d="M65.4243 104.941H61.1509V109.183H65.4243V104.941Z" fill="#263238"/>
<path d="M42.8337 99.9688H38.5603V104.21H42.8337V99.9688Z" fill="#263238"/>
<path d="M110.923 38.338H19.3599C17.4371 38.338 16.0341 40.8404 16.5355 43.398L23.2285 77.6174C23.5735 79.37 24.7327 80.589 26.0575 80.589H35.4047V82.9442H95.3197V80.589H104.225C105.55 80.589 106.709 79.37 107.054 77.6174L113.747 43.398C114.249 40.8404 112.846 38.338 110.923 38.338Z" fill="#263238" stroke="#263238" stroke-width="0.5" stroke-linecap="round" stroke-linejoin="round"/>
<path d="M100.564 77.5669H29.7008L22.6122 42.5609H107.652L100.564 77.5669Z" fill="#5CB0FF" stroke="#263238" stroke-width="0.5" stroke-linecap="round" stroke-linejoin="round"/>
<path d="M26.0345 45.1322L31.7431 75.0184H98.8479L104.552 45.1322H26.0345Z" fill="white"/>
<path d="M78.699 57.52H34.0808C33.9613 57.5185 33.8427 57.5413 33.7317 57.587C33.6208 57.6327 33.5197 57.7005 33.4341 57.7864C33.3486 57.8723 33.2804 57.9748 33.2333 58.0879C33.1863 58.201 33.1613 58.3225 33.1599 58.4455C33.1657 58.692 33.2656 58.9262 33.438 59.0973C33.6103 59.2685 33.8413 59.3627 34.0808 59.3597H78.699C78.818 59.3627 78.9364 59.3413 79.0472 59.2969C79.1581 59.2524 79.2594 59.1857 79.345 59.1007C79.4307 59.0156 79.4991 58.9139 79.5463 58.8015C79.5935 58.689 79.6185 58.568 79.6199 58.4455C79.6185 58.3225 79.5935 58.201 79.5465 58.0879C79.4994 57.9748 79.4312 57.8723 79.3457 57.7864C79.2602 57.7005 79.159 57.6327 79.0481 57.587C78.9371 57.5413 78.8185 57.5185 78.699 57.52Z" fill="#263238"/>
<path d="M78.6929 62.1203H35.0067C34.7657 62.1165 34.5332 62.2344 34.3597 62.4483C34.1862 62.6622 34.0856 62.955 34.0798 63.2631C34.0813 63.4168 34.1064 63.5687 34.1538 63.7101C34.2011 63.8515 34.2698 63.9795 34.3559 64.0869C34.4419 64.1944 34.5437 64.2791 34.6554 64.3362C34.7671 64.3933 34.8865 64.4218 35.0067 64.4199H78.6929C78.8132 64.4218 78.9326 64.3933 79.0443 64.3362C79.1559 64.2791 79.2577 64.1944 79.3438 64.0869C79.4299 63.9795 79.4986 63.8515 79.5459 63.7101C79.5933 63.5687 79.6184 63.4168 79.6198 63.2631C79.6184 63.1099 79.5932 62.9587 79.5457 62.8181C79.4982 62.6775 79.4294 62.5504 79.3431 62.4441C79.2569 62.3378 79.155 62.2544 79.0434 62.1988C78.9318 62.1433 78.8127 62.1166 78.6929 62.1203Z" fill="#263238"/>
<path d="M78.6989 66.727H36.4579C36.3323 66.7091 36.2051 66.7254 36.0847 66.7747C35.9643 66.8241 35.8534 66.9053 35.7592 67.0131C35.665 67.121 35.5897 67.2531 35.5381 67.4007C35.4865 67.5484 35.4598 67.7083 35.4598 67.87C35.4598 68.0317 35.4865 68.1916 35.5381 68.3392C35.5897 68.4869 35.665 68.6189 35.7592 68.7268C35.8534 68.8347 35.9643 68.9159 36.0847 68.9652C36.2051 69.0145 36.3323 69.0308 36.4579 69.013H78.6989C78.8184 69.0148 78.937 68.9865 79.048 68.9297C79.1589 68.873 79.2601 68.7888 79.3456 68.682C79.4311 68.5752 79.4993 68.4479 79.5464 68.3074C79.5934 68.1668 79.6184 68.0158 79.6198 67.863C79.6184 67.7108 79.5934 67.5604 79.5462 67.4206C79.499 67.2809 79.4306 67.1545 79.3449 67.0488C79.2593 66.9432 79.158 66.8603 79.0471 66.805C78.9363 66.7498 78.8179 66.7233 78.6989 66.727Z" fill="#263238"/>
<path d="M78.6938 71.3203H37.306C37.0652 71.3172 36.8329 71.4115 36.6595 71.5827C36.4861 71.7538 36.3857 71.988 36.3799 72.2345C36.3813 72.3575 36.4064 72.479 36.4537 72.5921C36.5011 72.7052 36.5697 72.8076 36.6557 72.8936C36.7417 72.9795 36.8434 73.0473 36.955 73.093C37.0665 73.1387 37.1858 73.1614 37.306 73.1599H78.6938C78.814 73.1614 78.9332 73.1387 79.0448 73.093C79.1564 73.0473 79.2581 72.9795 79.3441 72.8936C79.4301 72.8076 79.4987 72.7052 79.546 72.5921C79.5934 72.479 79.6184 72.3575 79.6199 72.2345C79.6185 72.112 79.5933 71.991 79.5458 71.8785C79.4984 71.766 79.4296 71.6643 79.3434 71.5793C79.2573 71.4942 79.1555 71.4276 79.044 71.3831C78.9325 71.3386 78.8134 71.3173 78.6938 71.3203Z" fill="#263238"/>
<path d="M89.6157 52.7912L86.7545 73.7672H95.3795L99.3631 52.7912H89.6157ZM90.4575 72.8702H88.0057L88.3507 70.4874H90.8347L90.4575 72.8702ZM91.2257 68.0356H88.7003L89.0637 65.5102H91.6259L91.2257 68.0356ZM92.0399 62.9066H89.4363L89.8227 60.2248H92.4631L92.0399 62.9066ZM92.9001 57.4556H90.1999L90.6093 54.599H93.3371L92.9001 57.4556ZM94.4181 72.8702H91.9663L92.3665 70.4874H94.8551L94.4181 72.8702ZM95.3013 68.0356H92.7805L93.2037 65.5102H95.7659L95.3013 68.0356ZM96.2213 62.9066H93.6223L94.0823 60.2248H96.7227L96.2213 62.9066ZM97.2195 57.4556H94.5377L94.9977 54.599H97.7255L97.2195 57.4556Z" fill="#5CB0FF"/>
<path d="M44.9036 53.0718H87.7572L88.2908 48.78H44.4436L44.9036 53.0718Z" fill="#5CB0FF"/>
<path d="M146.196 133.664L176.33 151.273L199.91 105.516L171.822 89.5544L146.196 133.664Z" fill="#263238" stroke="#263238" stroke-width="0.5" stroke-linecap="round" stroke-linejoin="round"/>
<path d="M147.369 130.715L146.196 133.664L176.326 150.707C176.618 149.587 177.212 148.569 178.042 147.763L147.369 130.715Z" fill="white" stroke="#263238" stroke-width="0.5" stroke-linecap="round" stroke-linejoin="round"/>
<path d="M171.707 87.696L147.369 130.715L178.497 148.195L201.617 104.592L171.707 87.696Z" fill="#263238" stroke="#263238" stroke-width="0.5" stroke-linecap="round" stroke-linejoin="round"/>
<path d="M147.217 132.261L155.658 136.461" stroke="#263238" stroke-width="0.5" stroke-linecap="round" stroke-linejoin="round"/>
<path d="M146.66 133.047L156.532 138.094" stroke="#263238" stroke-width="0.5" stroke-linecap="round" stroke-linejoin="round"/>
<path d="M177.103 148.752L170.792 144.911" stroke="#263238" stroke-width="0.5" stroke-linecap="round" stroke-linejoin="round"/>
<path d="M176.712 149.732L166.482 143.779" stroke="#263238" stroke-width="0.5" stroke-linecap="round" stroke-linejoin="round"/>
<path d="M175.884 98.0828L191.658 106.722" stroke="#5CB0FF" stroke-width="0.5" stroke-miterlimit="10"/>
<path d="M170.921 99.9642L193.189 112.159" stroke="#5CB0FF" stroke-width="0.5" stroke-miterlimit="10"/>
<path d="M199.721 108.166L201.617 104.592L197.605 102.329L199.721 108.166Z" fill="#5CB0FF" stroke="#5CB0FF" stroke-width="0.5" stroke-miterlimit="10"/>
<path d="M178.497 148.195L179.845 145.656L174.518 145.96L178.497 148.195Z" fill="#5CB0FF" stroke="#5CB0FF" stroke-width="0.5" stroke-miterlimit="10"/>
<path d="M119.019 99.2191C118.647 98.9143 118.2 98.7155 117.725 98.6434C117.25 98.5714 116.764 98.6288 116.319 98.8097C113.697 99.8677 108.499 102.149 108.218 103.69C107.85 105.751 111.493 118.005 112.358 122.132C113.223 126.258 115.27 129.032 120.367 130.14C125.464 131.249 132.138 128.443 134.687 123.834C137.235 119.224 133.767 115.025 131.108 110.875C128.992 107.591 121.885 101.579 119.019 99.2191Z" fill="#263238"/>
<path d="M142.428 155.146C142.428 155.146 137.58 137.951 137.58 127.831C137.58 117.711 135.892 110.314 133.817 107.071C131.743 103.828 129.797 102.526 128.886 102.526C127.975 102.526 128.628 103.695 129.926 105.383C131.223 107.071 132.391 107.977 132.911 110.057C133.431 112.136 133.426 114.726 132.778 114.468C132.129 114.21 131.094 109.017 130.183 107.071C129.272 105.125 127.069 102.66 125.772 101.491C124.475 100.323 121.632 96.8178 120.325 97.7286C119.019 98.6394 119.806 99.932 120.583 100.452C121.36 100.972 124.475 104.086 125.901 106.032C127.327 107.977 128.237 112.932 127.46 113.037C126.683 113.143 124.346 105.903 123.049 104.343C121.751 102.784 116.563 98.506 115.394 98.3634C114.226 98.2208 114.097 100.052 115.132 100.958C116.167 101.864 119.64 105.774 120.827 108.12C122.014 110.466 122.515 114.739 121.475 113.7C120.436 112.66 118.752 108.382 117.335 106.956C115.919 105.53 111.627 100.976 110.587 101.505C109.548 102.034 109.81 103.345 110.716 104.228C111.622 105.112 115.127 110.07 116.038 112.665C116.949 115.259 117.984 122.523 117.464 121.488C116.944 120.453 115.256 115.13 114.35 112.922C113.444 110.714 111.627 109.679 111.365 110.719C111.102 111.759 111.627 112.274 112.285 114.611C112.942 116.947 112.933 123.171 114.879 126.676C116.825 130.182 124.35 139.653 125.39 142.247C126.43 144.842 129.259 156.691 129.259 156.691" fill="white"/>
<path d="M142.428 155.146C142.428 155.146 137.58 137.951 137.58 127.831C137.58 117.711 135.892 110.314 133.817 107.071C131.743 103.828 129.797 102.526 128.886 102.526C127.975 102.526 128.628 103.695 129.926 105.383C131.223 107.071 132.391 107.977 132.911 110.057C133.431 112.136 133.426 114.726 132.778 114.468C132.129 114.21 131.094 109.017 130.183 107.071C129.272 105.125 127.069 102.66 125.772 101.491C124.475 100.323 121.632 96.8178 120.325 97.7286C119.019 98.6394 119.806 99.932 120.583 100.452C121.36 100.972 124.475 104.086 125.901 106.032C127.327 107.977 128.237 112.932 127.46 113.037C126.683 113.143 124.346 105.903 123.049 104.343C121.751 102.784 116.563 98.506 115.394 98.3634C114.226 98.2208 114.097 100.052 115.132 100.958C116.167 101.864 119.64 105.774 120.827 108.12C122.014 110.466 122.515 114.739 121.475 113.7C120.436 112.66 118.752 108.382 117.335 106.956C115.919 105.53 111.627 100.976 110.587 101.505C109.548 102.034 109.81 103.345 110.716 104.228C111.622 105.112 115.127 110.07 116.038 112.665C116.949 115.259 117.984 122.523 117.464 121.488C116.944 120.453 115.256 115.13 114.35 112.922C113.444 110.714 111.627 109.679 111.365 110.719C111.102 111.759 111.627 112.274 112.285 114.611C112.942 116.947 112.933 123.171 114.879 126.676C116.825 130.182 124.35 139.653 125.39 142.247C126.43 144.842 129.259 156.691 129.259 156.691" stroke="#263238" stroke-width="0.5" stroke-linecap="round" stroke-linejoin="round"/>
<path d="M34.8389 102.572C34.6273 102.871 34.4157 103.18 34.2087 103.492" stroke="white" stroke-width="0.5" stroke-linecap="round" stroke-linejoin="round"/>
<path d="M38.2889 98.6027C37.369 99.4536 36.5184 100.377 35.7451 101.363" stroke="white" stroke-width="0.5" stroke-linecap="round" stroke-linejoin="round"/>
<path d="M34.54 100.351C33.6391 101.621 32.8217 102.949 32.0928 104.325" stroke="white" stroke-width="0.5" stroke-linecap="round" stroke-linejoin="round"/>
<path d="M57.8067 107.605C57.5997 107.904 57.3882 108.212 57.1812 108.525" stroke="white" stroke-width="0.5" stroke-linecap="round" stroke-linejoin="round"/>
<path d="M61.2567 103.635C60.3391 104.487 59.4901 105.41 58.7175 106.395" stroke="white" stroke-width="0.5" stroke-linecap="round" stroke-linejoin="round"/>
<path d="M57.54 105.383C56.6374 106.652 55.8198 107.98 55.0928 109.357" stroke="white" stroke-width="0.5" stroke-linecap="round" stroke-linejoin="round"/>
<path d="M25.5884 152.998C25.5884 152.998 30.7956 137.951 30.7956 127.831C30.7956 117.711 32.4838 110.314 34.5584 107.071C36.633 103.828 38.5834 102.526 39.4896 102.526C40.3958 102.526 39.7518 103.695 38.4546 105.383C37.1574 107.071 35.989 107.977 35.4692 110.057C34.9494 112.136 34.9494 114.726 35.598 114.468C36.2466 114.21 37.3 109.04 38.1924 107.071C39.0848 105.102 41.3066 102.66 42.6038 101.491C43.901 100.323 46.7438 96.8178 48.0548 97.7286C49.3658 98.6394 48.5746 99.932 47.7972 100.452C47.0198 100.972 43.901 104.086 42.475 106.032C41.049 107.977 40.1382 112.932 40.9202 113.037C41.7022 113.143 44.0344 105.903 45.3316 104.343C46.6288 102.784 51.8176 98.506 52.986 98.3634C54.1544 98.2208 54.2832 100.052 53.2436 100.958C52.204 101.864 48.7034 105.774 47.535 108.12C46.3666 110.466 45.8514 114.739 46.8864 113.7C47.9214 112.66 49.6142 108.382 51.0264 106.956C52.4386 105.53 56.735 100.976 57.7746 101.505C58.8142 102.034 58.552 103.345 57.6412 104.228C56.7304 105.112 53.2298 110.07 52.3236 112.665C51.4174 115.259 50.3778 122.523 50.8976 121.488C51.4174 120.453 53.101 115.13 54.0118 112.922C54.9226 110.714 56.735 109.679 56.9926 110.719C57.2502 111.759 56.735 112.274 56.0726 114.611C55.4102 116.947 55.424 123.171 53.4782 126.676C51.5324 130.182 44.0068 139.653 42.9672 142.247C41.9276 144.842 38.749 154.548 38.749 154.548" fill="white"/>
<path d="M25.5884 152.998C25.5884 152.998 30.7956 137.951 30.7956 127.831C30.7956 117.711 32.4838 110.314 34.5584 107.071C36.633 103.828 38.5834 102.526 39.4896 102.526C40.3958 102.526 39.7518 103.695 38.4546 105.383C37.1574 107.071 35.989 107.977 35.4692 110.057C34.9494 112.136 34.9494 114.726 35.598 114.468C36.2466 114.21 37.3 109.04 38.1924 107.071C39.0848 105.102 41.3066 102.66 42.6038 101.491C43.901 100.323 46.7438 96.8178 48.0548 97.7286C49.3658 98.6394 48.5746 99.932 47.7972 100.452C47.0198 100.972 43.901 104.086 42.475 106.032C41.049 107.977 40.1382 112.932 40.9202 113.037C41.7022 113.143 44.0344 105.903 45.3316 104.343C46.6288 102.784 51.8176 98.506 52.986 98.3634C54.1544 98.2208 54.2832 100.052 53.2436 100.958C52.204 101.864 48.7034 105.774 47.535 108.12C46.3666 110.466 45.8514 114.739 46.8864 113.7C47.9214 112.66 49.6142 108.382 51.0264 106.956C52.4386 105.53 56.735 100.976 57.7746 101.505C58.8142 102.034 58.552 103.345 57.6412 104.228C56.7304 105.112 53.2298 110.07 52.3236 112.665C51.4174 115.259 50.3778 122.523 50.8976 121.488C51.4174 120.453 53.101 115.13 54.0118 112.922C54.9226 110.714 56.735 109.679 56.9926 110.719C57.2502 111.759 56.735 112.274 56.0726 114.611C55.4102 116.947 55.424 123.171 53.4782 126.676C51.5324 130.182 44.0068 139.653 42.9672 142.247C41.9276 144.842 38.749 154.548 38.749 154.548" stroke="#263238" stroke-width="0.5" stroke-linecap="round" stroke-linejoin="round"/>
</svg>
