<svg width="200" height="191" viewBox="0 0 200 191" fill="none" xmlns="http://www.w3.org/2000/svg">
<path d="M190.05 79.3599C188.602 71.6711 186.741 64.0658 184.475 56.577C177.676 34.9015 164.167 12.9657 140.952 5.59104C123.822 0.14862 105.319 3.93008 90.8355 15.0032C68.1357 32.3824 51.5981 56.0954 26.7446 71.1547C5.99361 83.7227 -4.86908 104.036 2.1125 132.743C9.09407 161.45 32.3863 178.187 57.8765 176.128C79.0759 174.417 101.233 176.244 119.559 186.536C135.931 195.727 164.87 187.749 188.805 162.618C202.746 147.98 201.4 129.371 196.855 111.965C194.053 101.246 192.226 90.2558 190.05 79.3599Z" fill="#5CB0FF"/>
<path opacity="0.7" d="M190.05 79.3599C188.602 71.6711 186.741 64.0658 184.475 56.577C177.676 34.9015 164.167 12.9657 140.952 5.59104C123.822 0.14862 105.319 3.93008 90.8355 15.0032C68.1357 32.3824 51.5981 56.0954 26.7446 71.1547C5.99361 83.7227 -4.86908 104.036 2.1125 132.743C9.09407 161.45 32.3863 178.187 57.8765 176.128C79.0759 174.417 101.233 176.244 119.559 186.536C135.931 195.727 164.87 187.749 188.805 162.618C202.746 147.98 201.4 129.371 196.855 111.965C194.053 101.246 192.226 90.2558 190.05 79.3599Z" fill="white"/>
<path d="M40.8128 11.5761C40.8128 11.5761 43.4039 9.53308 44.0628 8.22092C44.6164 7.11361 45.0372 5.52462 44.4559 4.34534C44.3296 4.0594 44.1442 3.80344 43.9119 3.59428C43.6796 3.38512 43.4057 3.22751 43.1081 3.13181C42.8105 3.0361 42.4961 3.00448 42.1854 3.03901C41.8747 3.07354 41.5749 3.17345 41.3056 3.33216C39.7111 4.3232 39.5394 7.70602 39.9491 9.33376C39.9824 9.4611 40.7852 11.5982 40.8128 11.5761Z" fill="#5CB0FF"/>
<path d="M16.8674 28.6175C16.9726 28.7171 18.8218 30.0515 18.8329 30.0238C18.844 29.9961 19.8627 26.8901 19.6911 25.4284C19.5471 24.1827 19.0156 22.6602 17.8751 21.9681C17.6119 21.7999 17.316 21.6894 17.007 21.6436C16.6981 21.5979 16.3829 21.618 16.0822 21.7027C15.7816 21.7874 15.5022 21.9348 15.2626 22.1351C15.0229 22.3354 14.8283 22.5842 14.6916 22.865C13.9054 24.5703 15.6328 27.4825 16.8674 28.6175Z" fill="#5CB0FF"/>
<path d="M71.1311 14.6765C71.1311 14.6765 61.6525 24.4651 61.719 36.4849C61.7854 48.5047 71.3359 58.2103 71.3359 58.2103C71.3359 58.2103 80.82 48.4272 80.7481 36.4018C80.6761 24.3765 71.1311 14.6765 71.1311 14.6765Z" fill="#5CB0FF"/>
<path d="M57.6163 43.6824C57.741 43.5489 57.8557 43.4064 57.9596 43.2561C58.6461 42.2097 59.2385 40.6871 58.7956 39.4359C58.7029 39.1375 58.5481 38.8622 58.3414 38.6279C58.1347 38.3937 57.8808 38.2058 57.5963 38.0767C57.3119 37.9475 57.0033 37.88 56.6909 37.8786C56.3785 37.8771 56.0693 37.9418 55.7837 38.0683C54.4937 38.6774 53.8625 40.7425 53.7297 42.4311C53.2148 42.3149 52.7497 42.2263 52.3511 42.1543C52.185 41.7723 52.0133 41.3903 51.8362 41.0027C51.659 40.6152 51.5206 40.1999 51.3545 39.7902C51.1275 39.1923 50.9282 38.5611 50.7233 37.9299C51.4707 37.5977 53.6521 36.5735 54.466 35.6766C55.2799 34.7796 56.127 33.3291 55.8723 32.028C55.8254 31.7195 55.7139 31.4244 55.545 31.1621C55.3761 30.8997 55.1537 30.676 54.8924 30.5056C54.631 30.3352 54.3366 30.2219 54.0284 30.1732C53.7202 30.1245 53.4052 30.1415 53.104 30.2231C51.2991 30.7767 50.2416 33.9768 50.2084 35.6544C50.2084 35.7042 50.2084 36.0586 50.2693 36.4849C50.0922 35.8648 49.9039 35.2447 49.7433 34.608C49.2783 32.8086 48.863 30.9594 48.4423 29.1102C48.3537 28.7282 48.2596 28.3406 48.171 27.9586C48.8021 27.6763 51.1773 26.5911 52.0465 25.6499C52.9158 24.7087 53.7075 23.3024 53.4528 22.0013C53.406 21.6928 53.2944 21.3978 53.1255 21.1354C52.9567 20.873 52.7343 20.6493 52.4729 20.4789C52.2115 20.3085 51.9171 20.1952 51.6089 20.1466C51.3007 20.0979 50.9857 20.1149 50.6846 20.1964C48.8852 20.75 47.8277 23.9502 47.7889 25.6277C47.7889 25.6831 47.8222 26.1094 47.8665 26.5856C47.6228 25.5835 47.3682 24.5869 47.0803 23.6069C46.6025 21.9206 46.0105 20.2688 45.3086 18.6628C45.5356 18.5687 48.3481 17.3506 49.2949 16.3042C50.1309 15.3741 50.9558 13.9567 50.6956 12.6556C50.6488 12.3472 50.5372 12.0521 50.3683 11.7897C50.1995 11.5274 49.9771 11.3036 49.7157 11.1332C49.4543 10.9628 49.1599 10.8496 48.8517 10.8009C48.5435 10.7522 48.2285 10.7692 47.9274 10.8507C46.128 11.4044 45.0705 14.6045 45.0317 16.2821C45.0317 16.3983 45.1702 17.943 45.2366 18.4967C45.2344 18.4783 45.2344 18.4597 45.2366 18.4413C44.51 16.8823 43.6467 15.3908 42.6566 13.9844C41.776 12.724 40.824 11.5151 39.8053 10.3635C38.8696 9.25619 37.9505 8.35927 37.1311 7.5454C36.6826 7.10802 36.2619 6.71492 35.8688 6.35505H35.9075C35.9408 6.35505 35.0328 4.26223 34.9608 4.14043C34.1192 2.68986 31.6389 0.381119 29.8063 0.77975C29.5013 0.847005 29.2141 0.977988 28.9633 1.1641C28.7126 1.35021 28.504 1.58725 28.3514 1.85964C28.1987 2.13204 28.1054 2.43365 28.0775 2.74467C28.0496 3.05568 28.0878 3.36908 28.1896 3.66429C28.5993 4.92662 29.9945 5.77371 31.1738 6.18341C32.3531 6.59312 35.0494 6.39934 35.6971 6.33844C36.0958 6.72599 36.5221 7.14124 36.9816 7.6063C37.7844 8.43679 38.6813 9.38353 39.5893 10.4742C39.8329 10.7677 40.0821 11.0888 40.3257 11.3988C39.8053 10.9614 39.0744 10.3801 38.9969 10.3303C37.5851 9.43336 34.3185 8.52537 32.879 9.72126C32.6409 9.92632 32.4492 10.1797 32.3166 10.4646C32.184 10.7494 32.1135 11.0593 32.1098 11.3735C32.1061 11.6877 32.1694 11.9991 32.2953 12.287C32.4213 12.5748 32.607 12.8326 32.8403 13.0432C33.7815 13.9733 35.4148 14.0841 36.655 13.9013C37.8951 13.7186 40.2537 12.2404 40.7575 11.947C41.3112 12.6335 41.8261 13.3588 42.341 14.1616C43.2872 15.563 44.108 17.0451 44.7937 18.5908C44.8324 18.6794 44.8601 18.779 44.8989 18.8676C44.6774 18.6074 43.3597 17.2786 43.2379 17.2067C41.9313 16.1547 38.8087 14.8979 37.2197 15.9277C36.9631 16.1059 36.7472 16.3362 36.5859 16.6038C36.4247 16.8713 36.3219 17.1699 36.2843 17.4799C36.2466 17.79 36.275 18.1045 36.3675 18.4028C36.46 18.7012 36.6146 18.9765 36.8211 19.2109C37.6571 20.2407 39.2627 20.5286 40.5139 20.4843C41.959 20.4345 44.7992 19.0005 44.9044 18.9451C45.5429 20.5145 46.0792 22.1234 46.51 23.7619C46.8311 24.9744 47.1135 26.2146 47.3792 27.4603C47.0858 27.1281 45.8567 25.8935 45.757 25.7994C44.4504 24.753 41.3278 23.4906 39.7388 24.526C39.4823 24.7041 39.2663 24.9345 39.1051 25.202C38.9438 25.4695 38.841 25.7681 38.8034 26.0782C38.7657 26.3882 38.7941 26.7028 38.8866 27.0011C38.9791 27.2994 39.1337 27.5748 39.3402 27.8091C40.1762 28.8334 41.7818 29.1268 43.0331 29.0825C44.4449 29.0272 47.1744 27.6652 47.4014 27.5489L47.7668 29.2542C48.1488 31.1089 48.5253 32.9692 48.9516 34.7907C49.1011 35.4219 49.2672 36.042 49.4333 36.6621C48.9738 36.1804 48.1211 35.3222 48.0381 35.2558C46.7315 34.2094 43.6089 32.947 42.0199 33.9824C41.7633 34.1605 41.5473 34.3909 41.3861 34.6584C41.2249 34.9259 41.1221 35.2245 41.0844 35.5346C41.0468 35.8447 41.0752 36.1592 41.1677 36.4575C41.2602 36.7558 41.4148 37.0312 41.6212 37.2655C42.4573 38.2898 44.0629 38.5832 45.3141 38.5334C46.5654 38.4836 48.8907 37.3929 49.544 37.0773C49.8264 38.1071 50.1309 39.1203 50.4797 40.1058C50.6403 40.5266 50.7731 40.9695 50.9503 41.3626L51.2161 41.9938L50.8894 41.9439C50.8894 41.9439 50.8617 42.5308 50.9171 43.4831C49.5385 42.5031 47.5509 41.656 46.2553 42.2484C45.9749 42.3857 45.7267 42.5806 45.527 42.8205C45.3272 43.0604 45.1805 43.3398 45.0963 43.6405C45.0121 43.9411 44.9925 44.2561 45.0386 44.5648C45.0847 44.8736 45.1956 45.1691 45.3639 45.4319C45.4453 45.5748 45.5418 45.7085 45.6518 45.8306C45.8962 47.2864 46.51 48.6551 47.4346 49.8058C47.5066 49.8833 48.4423 50.7526 48.9295 51.1844C48.4589 50.9242 47.9883 50.675 47.501 50.3982C46.7979 50.0107 46.0671 49.5733 45.3529 49.1525L44.2456 48.4549C43.8691 48.2279 43.5369 47.9621 43.177 47.713C42.6566 47.342 42.1361 46.9268 41.6212 46.5171C42.0586 45.8195 43.3154 43.7488 43.4981 42.564C43.6808 41.3792 43.5812 39.6961 42.6566 38.7493C42.4488 38.5137 42.1932 38.325 41.9068 38.1957C41.6204 38.0664 41.3098 37.9996 40.9956 37.9996C40.6814 37.9996 40.3708 38.0664 40.0844 38.1957C39.7981 38.325 39.5425 38.5137 39.3347 38.7493C38.1277 40.1888 39.0191 43.4554 39.916 44.8727C39.916 44.9226 40.1651 45.1994 40.4254 45.5316C39.9326 45.1164 39.4398 44.7011 38.9526 44.2582C37.574 43.0125 36.1844 41.7003 34.8334 40.3826L33.9697 39.5688C34.3462 38.9874 35.7248 36.7728 35.9186 35.516C36.1124 34.2592 36.0017 32.6481 35.0771 31.6958C34.8692 31.4601 34.6136 31.2714 34.3273 31.1421C34.0409 31.0129 33.7303 30.946 33.4161 30.946C33.1019 30.946 32.7913 31.0129 32.5049 31.1421C32.2185 31.2714 31.9629 31.4601 31.7551 31.6958C30.5482 33.1353 31.4395 36.4018 32.3088 37.8247C32.342 37.8746 32.6078 38.2068 32.9067 38.5777C32.1482 37.8801 31.3842 37.188 30.6035 36.5292C29.2751 35.3877 27.8711 34.337 26.4013 33.3844C26.5397 33.1796 28.2117 30.6162 28.4221 29.221C28.6104 27.9808 28.5052 26.353 27.5806 25.4007C27.3728 25.1651 27.1172 24.9764 26.8308 24.8471C26.5444 24.7178 26.2338 24.651 25.9196 24.651C25.6054 24.651 25.2948 24.7178 25.0084 24.8471C24.7221 24.9764 24.4665 25.1651 24.2586 25.4007C23.0517 26.8402 23.9431 30.1068 24.8123 31.5297C24.8732 31.6294 25.8366 32.8308 26.1909 33.246L26.1411 33.2128C24.676 32.3098 23.1324 31.5408 21.5291 30.9151C20.1 30.3504 18.6396 29.8679 17.1553 29.4701C15.7822 29.0881 14.5033 28.8223 13.3683 28.5953C12.7537 28.4791 12.189 28.3794 11.663 28.2964C11.663 28.2964 9.77506 27.0285 9.64772 26.9676C8.14732 26.2201 4.80324 25.661 3.49662 27.0063C3.27891 27.2354 3.11275 27.5085 3.00931 27.8071C2.90587 28.1057 2.86754 28.4231 2.89691 28.7377C2.92628 29.0524 3.02266 29.3572 3.17958 29.6315C3.3365 29.9058 3.55032 30.1434 3.80667 30.3283C4.842 31.1532 6.47528 31.0923 7.68224 30.7767C8.88921 30.4611 11.0042 28.8279 11.5578 28.4182C12.1115 28.5178 12.6651 28.6285 13.3295 28.7614C14.4368 29.0161 15.7268 29.3151 17.0833 29.7192C17.4487 29.8244 17.8307 29.9573 18.1906 30.0791C17.5151 30.0071 16.585 29.9241 16.4964 29.9241C14.8355 29.9518 11.5966 30.9982 11.054 32.792C10.9724 33.0924 10.9551 33.4066 11.0031 33.7141C11.0511 34.0216 11.1634 34.3156 11.3327 34.5768C11.5019 34.838 11.7243 35.0606 11.9854 35.23C12.2465 35.3995 12.5404 35.512 12.8478 35.5603C14.1489 35.815 15.5663 35.0066 16.502 34.1762C17.4376 33.3457 18.6058 30.821 18.8439 30.3006C19.6744 30.5829 20.5049 30.8875 21.3796 31.2584C22.9497 31.9121 24.458 32.7051 25.8864 33.628C25.9639 33.6779 26.0469 33.7443 26.1245 33.7997C25.7978 33.7056 23.9652 33.3235 23.8323 33.3125C22.1714 33.1574 18.8494 33.8661 18.1076 35.5658C17.9912 35.8561 17.9376 36.1678 17.9504 36.4802C17.9632 36.7927 18.042 37.0989 18.1816 37.3788C18.3213 37.6586 18.5186 37.9057 18.7606 38.1037C19.0027 38.3018 19.2839 38.4463 19.5858 38.5279C20.8537 38.921 22.3541 38.2787 23.3728 37.5479C24.5466 36.7064 26.1411 33.9436 26.1798 33.8384C27.5771 34.7976 28.9122 35.8442 30.1772 36.9721C31.1129 37.8026 32.0319 38.6884 32.9455 39.5798C32.5136 39.4691 30.8084 39.1092 30.681 39.0981C29.0201 38.9431 25.6982 39.6518 24.9563 41.3571C24.8408 41.647 24.788 41.9581 24.8012 42.27C24.8145 42.5818 24.8935 42.8873 25.033 43.1665C25.1726 43.4456 25.3696 43.6921 25.6112 43.8898C25.8527 44.0875 26.1333 44.2319 26.4345 44.3136C27.7024 44.7067 29.2028 44.0644 30.2215 43.3336C31.3676 42.5142 32.8901 39.8733 33.0175 39.6518C33.4327 40.056 33.8479 40.4601 34.2576 40.8698C35.603 42.2097 36.9429 43.5551 38.3104 44.8395C38.781 45.288 39.2627 45.7088 39.7444 46.1351C39.0966 45.9856 37.9118 45.742 37.8066 45.7309C36.1456 45.5759 32.8237 46.2846 32.0818 47.9898C31.9664 48.2798 31.9135 48.5909 31.9268 48.9028C31.94 49.2146 32.019 49.5201 32.1586 49.7993C32.2982 50.0784 32.4952 50.3249 32.7367 50.5226C32.9782 50.7203 33.2588 50.8647 33.56 50.9463C34.8224 51.345 36.3283 50.6972 37.3415 49.9719C38.3547 49.2466 39.6945 47.0431 40.0599 46.423C40.8683 47.1206 41.6821 47.8016 42.5182 48.4328C42.8836 48.693 43.2379 48.9864 43.6255 49.2189L44.7051 49.9387C45.4581 50.4093 46.1557 50.8411 46.8699 51.2564C47.2242 51.4723 47.5675 51.6661 47.9218 51.8654C47.2851 51.6163 46.2609 51.2453 46.1778 51.2176C44.5501 50.8135 41.1672 50.9851 40.1762 52.5796C40.0175 52.8489 39.9176 53.1488 39.8831 53.4594C39.8485 53.7701 39.8801 54.0846 39.9759 54.3821C40.0716 54.6797 40.2292 54.9536 40.4383 55.1859C40.6475 55.4182 40.9035 55.6036 41.1894 55.7299C42.3797 56.3112 43.9577 55.9015 45.065 55.3368C46.2996 54.7112 48.1544 52.4191 48.3869 52.1367C49.2506 52.6294 50.0921 53.0945 50.8894 53.5208C53.0154 54.6614 54.8757 55.5694 56.3152 56.2448C60.9991 60.2976 67.5876 60.7405 67.5876 60.7405C67.5876 60.7405 67.9364 52.8454 63.2913 47.6521C61.7039 45.9398 59.7691 44.5864 57.6163 43.6824ZM49.2561 51.3837C49.4001 51.0571 50.524 48.549 50.6015 47.1372L51.3766 46.9766C51.8524 49.4695 52.8424 51.8359 54.2833 53.925C53.4307 53.5227 52.5079 53.0724 51.515 52.5741C50.8008 52.2031 50.0368 51.8045 49.2561 51.3837Z" fill="#5CB0FF"/>
<path d="M92.1531 42.1765C92.1531 42.1765 84.2524 42.4146 79.419 47.4418C74.5856 52.4689 74.6465 60.364 74.6465 60.364C74.6465 60.364 82.5416 60.1204 87.3806 55.0988C92.2195 50.0772 92.1531 42.1765 92.1531 42.1765Z" fill="#5CB0FF"/>
<g opacity="0.5">
<path opacity="0.5" d="M40.8128 11.5761C40.8128 11.5761 43.4039 9.53308 44.0628 8.22092C44.6164 7.11361 45.0372 5.52462 44.4559 4.34534C44.3296 4.0594 44.1442 3.80344 43.9119 3.59428C43.6796 3.38512 43.4057 3.22751 43.1081 3.13181C42.8105 3.0361 42.4961 3.00448 42.1854 3.03901C41.8747 3.07354 41.5749 3.17345 41.3056 3.33216C39.7111 4.3232 39.5394 7.70602 39.9491 9.33376C39.9824 9.4611 40.7852 11.5982 40.8128 11.5761Z" fill="white"/>
<path opacity="0.5" d="M16.8674 28.6175C16.9726 28.7171 18.8218 30.0515 18.8329 30.0238C18.844 29.9961 19.8627 26.8901 19.6911 25.4284C19.5471 24.1827 19.0156 22.6602 17.8751 21.9681C17.6119 21.7999 17.316 21.6894 17.007 21.6436C16.6981 21.5979 16.3829 21.618 16.0822 21.7027C15.7816 21.7874 15.5022 21.9348 15.2626 22.1351C15.0229 22.3354 14.8283 22.5842 14.6916 22.865C13.9054 24.5703 15.6328 27.4825 16.8674 28.6175Z" fill="white"/>
<path opacity="0.5" d="M71.1311 14.6765C71.1311 14.6765 61.6525 24.4651 61.719 36.4849C61.7854 48.5047 71.3359 58.2103 71.3359 58.2103C71.3359 58.2103 80.82 48.4272 80.7481 36.4018C80.6761 24.3765 71.1311 14.6765 71.1311 14.6765Z" fill="white"/>
<path opacity="0.5" d="M57.6163 43.6824C57.741 43.5489 57.8557 43.4064 57.9596 43.2561C58.6461 42.2097 59.2385 40.6871 58.7956 39.4359C58.7029 39.1375 58.5481 38.8622 58.3414 38.6279C58.1347 38.3937 57.8808 38.2058 57.5963 38.0767C57.3119 37.9475 57.0033 37.88 56.6909 37.8786C56.3785 37.8771 56.0693 37.9418 55.7837 38.0683C54.4937 38.6774 53.8625 40.7425 53.7297 42.4311C53.2148 42.3149 52.7497 42.2263 52.3511 42.1543C52.185 41.7723 52.0133 41.3903 51.8362 41.0027C51.659 40.6152 51.5206 40.1999 51.3545 39.7902C51.1275 39.1923 50.9282 38.5611 50.7233 37.9299C51.4707 37.5977 53.6521 36.5735 54.466 35.6766C55.2799 34.7796 56.127 33.3291 55.8723 32.028C55.8254 31.7195 55.7139 31.4244 55.545 31.1621C55.3761 30.8997 55.1537 30.676 54.8924 30.5056C54.631 30.3352 54.3366 30.2219 54.0284 30.1732C53.7202 30.1245 53.4052 30.1415 53.104 30.2231C51.2991 30.7767 50.2416 33.9768 50.2084 35.6544C50.2084 35.7042 50.2084 36.0586 50.2693 36.4849C50.0922 35.8648 49.9039 35.2447 49.7433 34.608C49.2783 32.8086 48.863 30.9594 48.4423 29.1102C48.3537 28.7282 48.2596 28.3406 48.171 27.9586C48.8021 27.6763 51.1773 26.5911 52.0465 25.6499C52.9158 24.7087 53.7075 23.3024 53.4528 22.0013C53.406 21.6928 53.2944 21.3978 53.1255 21.1354C52.9567 20.873 52.7343 20.6493 52.4729 20.4789C52.2115 20.3085 51.9171 20.1952 51.6089 20.1466C51.3007 20.0979 50.9857 20.1149 50.6846 20.1964C48.8852 20.75 47.8277 23.9502 47.7889 25.6277C47.7889 25.6831 47.8222 26.1094 47.8665 26.5856C47.6228 25.5835 47.3682 24.5869 47.0803 23.6069C46.6025 21.9206 46.0105 20.2688 45.3086 18.6628C45.5356 18.5687 48.3481 17.3506 49.2949 16.3042C50.1309 15.3741 50.9558 13.9567 50.6956 12.6556C50.6488 12.3472 50.5372 12.0521 50.3683 11.7897C50.1995 11.5274 49.9771 11.3036 49.7157 11.1332C49.4543 10.9628 49.1599 10.8496 48.8517 10.8009C48.5435 10.7522 48.2285 10.7692 47.9274 10.8507C46.128 11.4044 45.0705 14.6045 45.0317 16.2821C45.0317 16.3983 45.1702 17.943 45.2366 18.4967C45.2344 18.4783 45.2344 18.4597 45.2366 18.4413C44.51 16.8823 43.6467 15.3908 42.6566 13.9844C41.776 12.724 40.824 11.5151 39.8053 10.3635C38.8696 9.25619 37.9505 8.35927 37.1311 7.5454C36.6826 7.10802 36.2619 6.71492 35.8688 6.35505H35.9075C35.9408 6.35505 35.0328 4.26223 34.9608 4.14043C34.1192 2.68986 31.6389 0.381119 29.8063 0.77975C29.5013 0.847005 29.2141 0.977988 28.9633 1.1641C28.7126 1.35021 28.504 1.58725 28.3514 1.85964C28.1987 2.13204 28.1054 2.43365 28.0775 2.74467C28.0496 3.05568 28.0878 3.36908 28.1896 3.66429C28.5993 4.92662 29.9945 5.77371 31.1738 6.18341C32.3531 6.59312 35.0494 6.39934 35.6971 6.33844C36.0958 6.72599 36.5221 7.14124 36.9816 7.6063C37.7844 8.43679 38.6813 9.38353 39.5893 10.4742C39.8329 10.7677 40.0821 11.0888 40.3257 11.3988C39.8053 10.9614 39.0744 10.3801 38.9969 10.3303C37.5851 9.43336 34.3185 8.52537 32.879 9.72126C32.6409 9.92632 32.4492 10.1797 32.3166 10.4646C32.184 10.7494 32.1135 11.0593 32.1098 11.3735C32.1061 11.6877 32.1694 11.9991 32.2953 12.287C32.4213 12.5748 32.607 12.8326 32.8403 13.0432C33.7815 13.9733 35.4148 14.0841 36.655 13.9013C37.8951 13.7186 40.2537 12.2404 40.7575 11.947C41.3112 12.6335 41.8261 13.3588 42.341 14.1616C43.2872 15.563 44.108 17.0451 44.7937 18.5908C44.8324 18.6794 44.8601 18.779 44.8989 18.8676C44.6774 18.6074 43.3597 17.2786 43.2379 17.2067C41.9313 16.1547 38.8087 14.8979 37.2197 15.9277C36.9631 16.1059 36.7472 16.3362 36.5859 16.6038C36.4247 16.8713 36.3219 17.1699 36.2843 17.4799C36.2466 17.79 36.275 18.1045 36.3675 18.4028C36.46 18.7012 36.6146 18.9765 36.8211 19.2109C37.6571 20.2407 39.2627 20.5286 40.5139 20.4843C41.959 20.4345 44.7992 19.0005 44.9044 18.9451C45.5429 20.5145 46.0792 22.1234 46.51 23.7619C46.8311 24.9744 47.1135 26.2146 47.3792 27.4603C47.0858 27.1281 45.8567 25.8935 45.757 25.7994C44.4504 24.753 41.3278 23.4906 39.7388 24.526C39.4823 24.7041 39.2663 24.9345 39.1051 25.202C38.9438 25.4695 38.841 25.7681 38.8034 26.0782C38.7657 26.3882 38.7941 26.7028 38.8866 27.0011C38.9791 27.2994 39.1337 27.5748 39.3402 27.8091C40.1762 28.8334 41.7818 29.1268 43.0331 29.0825C44.4449 29.0272 47.1744 27.6652 47.4014 27.5489L47.7668 29.2542C48.1488 31.1089 48.5253 32.9692 48.9516 34.7907C49.1011 35.4219 49.2672 36.042 49.4333 36.6621C48.9738 36.1804 48.1211 35.3222 48.0381 35.2558C46.7315 34.2094 43.6089 32.947 42.0199 33.9824C41.7633 34.1605 41.5473 34.3909 41.3861 34.6584C41.2249 34.9259 41.1221 35.2245 41.0844 35.5346C41.0468 35.8447 41.0752 36.1592 41.1677 36.4575C41.2602 36.7558 41.4148 37.0312 41.6212 37.2655C42.4573 38.2898 44.0629 38.5832 45.3141 38.5334C46.5654 38.4836 48.8907 37.3929 49.544 37.0773C49.8264 38.1071 50.1309 39.1203 50.4797 40.1058C50.6403 40.5266 50.7731 40.9695 50.9503 41.3626L51.2161 41.9938L50.8894 41.9439C50.8894 41.9439 50.8617 42.5308 50.9171 43.4831C49.5385 42.5031 47.5509 41.656 46.2553 42.2484C45.9749 42.3857 45.7267 42.5806 45.527 42.8205C45.3272 43.0604 45.1805 43.3398 45.0963 43.6405C45.0121 43.9411 44.9925 44.2561 45.0386 44.5648C45.0847 44.8736 45.1956 45.1691 45.3639 45.4319C45.4453 45.5748 45.5418 45.7085 45.6518 45.8306C45.8962 47.2864 46.51 48.6551 47.4346 49.8058C47.5066 49.8833 48.4423 50.7526 48.9295 51.1844C48.4589 50.9242 47.9883 50.675 47.501 50.3982C46.7979 50.0107 46.0671 49.5733 45.3529 49.1525L44.2456 48.4549C43.8691 48.2279 43.5369 47.9621 43.177 47.713C42.6566 47.342 42.1361 46.9268 41.6212 46.5171C42.0586 45.8195 43.3154 43.7488 43.4981 42.564C43.6808 41.3792 43.5812 39.6961 42.6566 38.7493C42.4488 38.5137 42.1932 38.325 41.9068 38.1957C41.6204 38.0664 41.3098 37.9996 40.9956 37.9996C40.6814 37.9996 40.3708 38.0664 40.0844 38.1957C39.7981 38.325 39.5425 38.5137 39.3347 38.7493C38.1277 40.1888 39.0191 43.4554 39.916 44.8727C39.916 44.9226 40.1651 45.1994 40.4254 45.5316C39.9326 45.1164 39.4398 44.7011 38.9526 44.2582C37.574 43.0125 36.1844 41.7003 34.8334 40.3826L33.9697 39.5688C34.3462 38.9874 35.7248 36.7728 35.9186 35.516C36.1124 34.2592 36.0017 32.6481 35.0771 31.6958C34.8692 31.4601 34.6136 31.2714 34.3273 31.1421C34.0409 31.0129 33.7303 30.946 33.4161 30.946C33.1019 30.946 32.7913 31.0129 32.5049 31.1421C32.2185 31.2714 31.9629 31.4601 31.7551 31.6958C30.5482 33.1353 31.4395 36.4018 32.3088 37.8247C32.342 37.8746 32.6078 38.2068 32.9067 38.5777C32.1482 37.8801 31.3842 37.188 30.6035 36.5292C29.2751 35.3877 27.8711 34.337 26.4013 33.3844C26.5397 33.1796 28.2117 30.6162 28.4221 29.221C28.6104 27.9808 28.5052 26.353 27.5806 25.4007C27.3728 25.1651 27.1172 24.9764 26.8308 24.8471C26.5444 24.7178 26.2338 24.651 25.9196 24.651C25.6054 24.651 25.2948 24.7178 25.0084 24.8471C24.7221 24.9764 24.4665 25.1651 24.2586 25.4007C23.0517 26.8402 23.9431 30.1068 24.8123 31.5297C24.8732 31.6294 25.8366 32.8308 26.1909 33.246L26.1411 33.2128C24.676 32.3098 23.1324 31.5408 21.5291 30.9151C20.1 30.3504 18.6396 29.8679 17.1553 29.4701C15.7822 29.0881 14.5033 28.8223 13.3683 28.5953C12.7537 28.4791 12.189 28.3794 11.663 28.2964C11.663 28.2964 9.77506 27.0285 9.64772 26.9676C8.14732 26.2201 4.80324 25.661 3.49662 27.0063C3.27891 27.2354 3.11275 27.5085 3.00931 27.8071C2.90587 28.1057 2.86754 28.4231 2.89691 28.7377C2.92628 29.0524 3.02266 29.3572 3.17958 29.6315C3.3365 29.9058 3.55032 30.1434 3.80667 30.3283C4.842 31.1532 6.47528 31.0923 7.68224 30.7767C8.88921 30.4611 11.0042 28.8279 11.5578 28.4182C12.1115 28.5178 12.6651 28.6285 13.3295 28.7614C14.4368 29.0161 15.7268 29.3151 17.0833 29.7192C17.4487 29.8244 17.8307 29.9573 18.1906 30.0791C17.5151 30.0071 16.585 29.9241 16.4964 29.9241C14.8355 29.9518 11.5966 30.9982 11.054 32.792C10.9724 33.0924 10.9551 33.4066 11.0031 33.7141C11.0511 34.0216 11.1634 34.3156 11.3327 34.5768C11.5019 34.838 11.7243 35.0606 11.9854 35.23C12.2465 35.3995 12.5404 35.512 12.8478 35.5603C14.1489 35.815 15.5663 35.0066 16.502 34.1762C17.4376 33.3457 18.6058 30.821 18.8439 30.3006C19.6744 30.5829 20.5049 30.8875 21.3796 31.2584C22.9497 31.9121 24.458 32.7051 25.8864 33.628C25.9639 33.6779 26.0469 33.7443 26.1245 33.7997C25.7978 33.7056 23.9652 33.3235 23.8323 33.3125C22.1714 33.1574 18.8494 33.8661 18.1076 35.5658C17.9912 35.8561 17.9376 36.1678 17.9504 36.4802C17.9632 36.7927 18.042 37.0989 18.1816 37.3788C18.3213 37.6586 18.5186 37.9057 18.7606 38.1037C19.0027 38.3018 19.2839 38.4463 19.5858 38.5279C20.8537 38.921 22.3541 38.2787 23.3728 37.5479C24.5466 36.7064 26.1411 33.9436 26.1798 33.8384C27.5771 34.7976 28.9122 35.8442 30.1772 36.9721C31.1129 37.8026 32.0319 38.6884 32.9455 39.5798C32.5136 39.4691 30.8084 39.1092 30.681 39.0981C29.0201 38.9431 25.6982 39.6518 24.9563 41.3571C24.8408 41.647 24.788 41.9581 24.8012 42.27C24.8145 42.5818 24.8935 42.8873 25.033 43.1665C25.1726 43.4456 25.3696 43.6921 25.6112 43.8898C25.8527 44.0875 26.1333 44.2319 26.4345 44.3136C27.7024 44.7067 29.2028 44.0644 30.2215 43.3336C31.3676 42.5142 32.8901 39.8733 33.0175 39.6518C33.4327 40.056 33.8479 40.4601 34.2576 40.8698C35.603 42.2097 36.9429 43.5551 38.3104 44.8395C38.781 45.288 39.2627 45.7088 39.7444 46.1351C39.0966 45.9856 37.9118 45.742 37.8066 45.7309C36.1456 45.5759 32.8237 46.2846 32.0818 47.9898C31.9664 48.2798 31.9135 48.5909 31.9268 48.9028C31.94 49.2146 32.019 49.5201 32.1586 49.7993C32.2982 50.0784 32.4952 50.3249 32.7367 50.5226C32.9782 50.7203 33.2588 50.8647 33.56 50.9463C34.8224 51.345 36.3283 50.6972 37.3415 49.9719C38.3547 49.2466 39.6945 47.0431 40.0599 46.423C40.8683 47.1206 41.6821 47.8016 42.5182 48.4328C42.8836 48.693 43.2379 48.9864 43.6255 49.2189L44.7051 49.9387C45.4581 50.4093 46.1557 50.8411 46.8699 51.2564C47.2242 51.4723 47.5675 51.6661 47.9218 51.8654C47.2851 51.6163 46.2609 51.2453 46.1778 51.2176C44.5501 50.8135 41.1672 50.9851 40.1762 52.5796C40.0175 52.8489 39.9176 53.1488 39.8831 53.4594C39.8485 53.7701 39.8801 54.0846 39.9759 54.3821C40.0716 54.6797 40.2292 54.9536 40.4383 55.1859C40.6475 55.4182 40.9035 55.6036 41.1894 55.7299C42.3797 56.3112 43.9577 55.9015 45.065 55.3368C46.2996 54.7112 48.1544 52.4191 48.3869 52.1367C49.2506 52.6294 50.0921 53.0945 50.8894 53.5208C53.0154 54.6614 54.8757 55.5694 56.3152 56.2448C60.9991 60.2976 67.5876 60.7405 67.5876 60.7405C67.5876 60.7405 67.9364 52.8454 63.2913 47.6521C61.7039 45.9398 59.7691 44.5864 57.6163 43.6824ZM49.2561 51.3837C49.4001 51.0571 50.524 48.549 50.6015 47.1372L51.3766 46.9766C51.8524 49.4695 52.8424 51.8359 54.2833 53.925C53.4307 53.5227 52.5079 53.0724 51.515 52.5741C50.8008 52.2031 50.0368 51.8045 49.2561 51.3837Z" fill="white"/>
<path opacity="0.5" d="M92.1531 42.1765C92.1531 42.1765 84.2524 42.4146 79.419 47.4418C74.5856 52.4689 74.6465 60.364 74.6465 60.364C74.6465 60.364 82.5416 60.1204 87.3806 55.0988C92.2195 50.0772 92.1531 42.1765 92.1531 42.1765Z" fill="white"/>
</g>
<path d="M71.5239 47.2645L79.2805 40.2885L78.9483 39.9175L71.5183 46.5946L71.4796 37.4593L71.5183 37.487L78.0847 27.8922L77.6694 27.6098L71.4796 36.6676L71.3799 14.6765H70.8872L70.9481 29.603L66.0095 25.3288L65.6828 25.7052L70.9536 30.2674L70.9979 40.9363L63.5125 34.3146L63.1803 34.6855L70.9979 41.6062L71.0422 51.3228L65.4171 46.9102L65.1126 47.2977L71.0477 51.9595L71.0699 58.2103H71.5682L71.5239 47.259V47.2645Z" fill="white"/>
<path d="M64.3763 49.9554L63.8835 49.9L63.2579 55.4199L59.9249 51.6994H59.936L59.0889 45.0112L58.5961 45.0777L59.3491 51.0571L51.072 41.8L50.701 42.1322L56.3206 48.4107L52.7606 48.455L52.7717 48.9533L56.758 48.9034L60.7 53.305L55.1358 53.3105V53.8088L61.143 53.8033L64.7251 57.8062L60.7997 58.0443L60.8329 58.537L65.1459 58.2768L67.5321 60.9454L67.9031 60.6132L63.7008 55.9182L64.3763 49.9554Z" fill="white"/>
<path d="M83.1229 51.9263L89.7224 50.5809L89.6228 50.0937L83.7208 51.2951L92.3302 42.3481L91.9703 42.0048L86.1292 48.0729L85.8192 44.5295L85.3264 44.5738L85.6697 48.549L81.5727 52.8066L81.1519 47.259L80.6536 47.2978L81.1131 53.2883L77.387 57.1528L76.8611 53.2606L76.3628 53.327L76.9441 57.6123L74.4637 60.1924L74.8236 60.5356L79.1919 55.9957L85.1936 56.2226L85.2102 55.7299L79.657 55.514L83.1174 51.9152L83.1229 51.9263Z" fill="white"/>
<path d="M86.4954 32.6703C89.0853 32.6703 91.1848 30.5485 91.1848 27.9311C91.1848 25.3136 89.0853 23.1918 86.4954 23.1918C83.9054 23.1918 81.8059 25.3136 81.8059 27.9311C81.8059 30.5485 83.9054 32.6703 86.4954 32.6703Z" fill="#263238" stroke="#263238" stroke-width="0.5" stroke-linecap="round" stroke-linejoin="round"/>
<path d="M99.512 40.8975C99.512 40.8975 101.727 40.8034 102.28 44.7288C102.834 48.6542 105.148 58.8913 105.342 60.3253C105.536 61.7592 104.672 63.4866 102.574 64.1565C100.475 64.8265 99.3182 62.8167 99.1244 61.8589C98.9306 60.9011 97.0814 49.2411 97.0814 49.2411L99.512 40.8975Z" fill="#263238" stroke="#263238" stroke-width="0.5" stroke-linecap="round" stroke-linejoin="round"/>
<path d="M77.9581 50.4425C77.9581 50.4425 68.2581 54.5451 68.2581 56.0344C68.2581 57.5238 74.232 72.0904 74.232 72.0904L99.9714 65.3746L97.0868 49.2522C97.0868 49.2522 93.2555 44.4741 77.9581 50.4425Z" fill="#5CB0FF" stroke="#263238" stroke-width="0.5" stroke-linecap="round" stroke-linejoin="round"/>
<path d="M86.8053 41.6394C86.8053 41.6394 84.037 43.3613 81.8224 44.6015C79.6078 45.8417 76.2859 47.5691 76.2859 51.0183C76.2859 54.4676 78.7773 68.1484 78.7773 69.5823C78.7317 70.2223 78.7633 70.8655 78.8715 71.498C78.8715 71.2101 95.7136 65.6569 95.7136 65.6569C96.2318 63.4548 96.8713 61.283 97.6293 59.1515C98.493 57.0476 97.6292 55.2261 98.5871 51.7824C99.5449 48.3386 101.355 46.041 100.597 43.4776C99.8383 40.9141 99.639 40.9916 96.8652 40.892C94.0914 40.7923 89.485 40.7757 86.8053 41.6394Z" fill="#263238" stroke="#263238" stroke-width="0.5" stroke-linecap="round" stroke-linejoin="round"/>
<path d="M85.543 40.1335C85.543 40.1335 84.2973 40.8034 83.8156 43.8652C83.5034 46.3092 83.3444 48.7704 83.3395 51.2343C83.3395 51.2343 88.5051 48.3664 89.2747 48.2667C90.0442 48.167 95.5919 50.4813 95.5919 50.4813C95.1416 47.9472 94.5012 45.4505 93.6762 43.0125C92.5301 39.9397 86.6891 38.7937 85.543 40.1335Z" fill="white" stroke="#263238" stroke-width="0.5" stroke-linecap="round" stroke-linejoin="round"/>
<path d="M84.5852 39.3694L84.6793 39.6961C85.0503 40.9916 86.4399 45.7863 87.2649 48.1725C88.2227 50.9408 89.6567 52.0979 89.6567 52.0979L91.0906 46.3732C91.0906 46.3732 85.4434 40.8975 84.5852 39.3694Z" fill="white" stroke="#263238" stroke-width="0.5" stroke-linecap="round" stroke-linejoin="round"/>
<path d="M89.6457 27.1171C89.6457 27.1171 84.9563 26.3531 83.3285 32.4765C81.7008 38.5999 86.966 43.8652 88.4941 45.8749C90.0222 47.8847 92.2368 48.5269 93.477 46.5449C95.3926 43.4832 95.9684 41.9495 96.2453 37.93C96.5221 33.9105 96.0515 31.2308 94.2355 29.1269C93.6484 28.4961 92.9382 27.9923 92.1488 27.6466C91.3594 27.3009 90.5075 27.1207 89.6457 27.1171Z" fill="white" stroke="#263238" stroke-width="0.5" stroke-linecap="round" stroke-linejoin="round"/>
<path d="M94.252 29.1269C93.6643 28.4954 92.9532 27.9912 92.1627 27.6455C91.3723 27.2998 90.5194 27.12 89.6567 27.1171C89.6567 27.1171 84.9672 26.3531 83.3395 32.4765C82.8937 34.2133 82.9378 36.0396 83.4668 37.7528C83.6385 37.3154 83.8987 36.9722 84.2973 36.9722C85.4434 36.9722 85.543 38.5999 85.9251 38.5058C86.3071 38.4117 87.8352 37.0718 87.5528 35.8261C87.2704 34.5804 87.6469 34.0101 89.6567 34.0101C91.6664 34.0101 92.1426 34.8683 92.8125 34.6801C93.4824 34.4918 93.9641 33.1464 94.634 33.1464C94.9333 33.1569 95.2274 33.227 95.4993 33.3524C95.7712 33.4779 96.0153 33.6563 96.2175 33.8773C96.0699 32.1285 95.3831 30.4687 94.252 29.1269Z" fill="#263238" stroke="#263238" stroke-width="0.5" stroke-linecap="round" stroke-linejoin="round"/>
<path d="M85.9253 39.0816C85.9253 39.0816 85.1557 37.1659 84.2976 36.9722C83.4394 36.7784 82.9577 37.3597 83.4339 38.9819C83.91 40.6041 84.5855 41.2796 84.9675 41.2796C85.3495 41.2796 85.5211 40.7259 85.5211 40.7259" fill="white"/>
<path d="M85.9253 39.0816C85.9253 39.0816 85.1557 37.1659 84.2976 36.9722C83.4394 36.7784 82.9577 37.3597 83.4339 38.9819C83.91 40.6041 84.5855 41.2796 84.9675 41.2796C85.3495 41.2796 85.5211 40.7259 85.5211 40.7259" stroke="#263238" stroke-width="0.5" stroke-linecap="round" stroke-linejoin="round"/>
<path d="M78.938 58.6975C78.938 58.6975 79.4141 61.7648 81.5236 63.1268C83.633 64.4887 86.5064 63.7967 86.5064 63.7967" stroke="#263238" stroke-width="0.5" stroke-linecap="round" stroke-linejoin="round"/>
<path d="M89.6455 52.098C89.6455 52.098 90.9853 57.1694 90.6974 59.3675" stroke="#263238" stroke-width="0.5" stroke-linecap="round" stroke-linejoin="round"/>
<path d="M61.055 50.8024C61.055 50.8024 62.2176 51.2841 63.0924 54.2905C63.9672 57.2968 66.287 62.8167 66.8683 64.9483C67.4497 67.0798 67.2559 69.7928 64.7367 70.4848C62.2176 71.1769 59.5047 64.2839 59.1172 63.7026C58.7296 63.1212 57.7607 57.6954 58.2479 54.7887C58.7351 51.8821 59.9919 50.4204 61.055 50.8024Z" fill="white" stroke="#263238" stroke-width="0.5" stroke-linecap="round" stroke-linejoin="round"/>
<path d="M47.2576 60.8678C47.2576 60.8678 32.1207 75.6338 32.1207 77.8484C32.1207 80.063 41.029 98.3779 43.5205 97.9626C46.0119 97.5474 57.2234 85.5995 57.2234 85.5995L47.2576 60.8678Z" fill="#5CB0FF" stroke="#263238" stroke-width="0.5" stroke-linecap="round" stroke-linejoin="round"/>
<path d="M47.684 53.1332C44.8078 55.6778 42.0899 58.3958 39.5453 61.2719C36.1514 65.2416 36.4448 71.9298 37.5078 76.4808C38.5709 81.0319 40.5142 93.9209 42.9337 94.4081C45.3531 94.8954 47.2964 89.7574 51.5596 86.1033C55.8227 82.4492 59.2166 79.3211 59.5045 76.8961C59.7924 74.4711 59.4104 66.7254 59.6042 66.1441C60.0651 63.2906 60.3241 60.4081 60.3793 57.5182C60.3793 54.7111 58.2477 51.6107 56.1161 50.9297C53.9846 50.2487 48.5532 52.4633 47.684 53.1332Z" fill="white" stroke="#263238" stroke-width="0.5" stroke-linecap="round" stroke-linejoin="round"/>
<path d="M67.3111 144.276C67.3111 144.276 64.1774 150.72 59.6928 154.823C55.2082 158.925 48.1713 164.002 48.1713 164.002C48.1713 164.002 55.5902 166.35 57.1571 166.544C58.7239 166.737 58.3253 167.518 56.5702 168.304C54.8151 169.091 52.6614 169.672 47.7782 169.672C42.8949 169.672 39.7723 169.672 39.573 168.498C39.3737 167.324 42.5074 164.396 44.8493 162.054C47.1913 159.712 56.1771 145.056 56.9578 144.276C57.7384 143.495 63.2085 140.954 67.3111 144.276Z" fill="white" stroke="#263238" stroke-width="0.5" stroke-linecap="round" stroke-linejoin="round"/>
<path d="M57.157 166.544C55.867 166.383 50.6128 164.767 48.7969 164.202L47.3906 167.324C46.3291 167.496 45.2422 167.418 44.216 167.097C43.1897 166.776 42.2522 166.221 41.4776 165.475C40.3094 166.743 39.4678 167.872 39.5675 168.498C39.7668 169.672 42.8894 169.672 47.7726 169.672C52.6558 169.672 54.804 169.085 56.5646 168.304C58.3252 167.524 58.7183 166.738 57.157 166.544Z" fill="#263238" stroke="#263238" stroke-width="0.5" stroke-linecap="round" stroke-linejoin="round"/>
<path d="M123.352 144.276C123.352 144.276 126.48 150.72 130.97 154.823C135.46 158.925 142.497 164.002 142.497 164.002C142.497 164.002 135.073 166.35 133.512 166.544C131.95 166.738 132.338 167.518 134.098 168.304C135.859 169.091 137.974 169.672 142.885 169.672C147.796 169.672 150.896 169.672 151.09 168.498C151.284 167.324 148.161 164.396 145.814 162.054C143.466 159.712 134.486 145.056 133.705 144.276C132.925 143.495 127.455 140.954 123.352 144.276Z" fill="white" stroke="#263238" stroke-width="0.5" stroke-linecap="round" stroke-linejoin="round"/>
<path d="M133.512 166.544C134.796 166.383 140.056 164.767 141.872 164.202L143.278 167.324C144.339 167.495 145.424 167.416 146.449 167.095C147.475 166.774 148.411 166.22 149.186 165.475C150.348 166.743 151.195 167.872 151.09 168.498C150.896 169.672 147.768 169.672 142.885 169.672C138.002 169.672 135.854 169.085 134.098 168.304C132.343 167.524 131.95 166.738 133.512 166.544Z" fill="#263238" stroke="#263238" stroke-width="0.5" stroke-linecap="round" stroke-linejoin="round"/>
<path d="M22.1882 147.011C22.1882 147.011 24.9232 152.088 24.7295 153.848C24.5689 155.282 21.1529 166.234 19.9071 170.198C19.8582 170.354 19.8486 170.52 19.8792 170.681C19.9099 170.843 19.9797 170.994 20.0827 171.121C20.1856 171.249 20.3185 171.349 20.4694 171.413C20.6203 171.477 20.7847 171.503 20.948 171.488C21.1426 171.47 21.3277 171.396 21.4803 171.274C21.6328 171.151 21.7462 170.987 21.8062 170.801L27.2707 154.042C27.2707 154.042 28.2452 152.868 31.3733 152.287C33.7651 151.833 45.6797 151.274 51.1166 151.036C52.1198 150.979 53.1061 151.313 53.8674 151.969C54.6286 152.625 55.1054 153.551 55.197 154.552C55.197 154.579 55.197 154.601 55.197 154.629C55.3687 156.882 59.0726 168.537 59.9142 171.117C59.9599 171.258 60.055 171.379 60.182 171.456C60.3091 171.533 60.4596 171.562 60.6062 171.538C60.6889 171.524 60.7679 171.493 60.8385 171.448C60.9091 171.403 60.9697 171.344 61.0168 171.274C61.0639 171.205 61.0964 171.127 61.1125 171.045C61.1285 170.962 61.1277 170.878 61.1101 170.796C60.4457 167.773 57.5944 154.74 56.5646 148.185C56.5646 148.185 35.8579 149.159 31.1685 147.985C28.3499 147.281 25.6517 146.162 23.1626 144.663C23.1626 144.663 21.9944 144.669 22.1882 147.011Z" fill="#263238" stroke="#263238" stroke-width="0.5" stroke-linecap="round" stroke-linejoin="round"/>
<path d="M20.4388 112.635C20.4388 112.635 13.4019 134.703 14.5701 138.612C15.7383 142.521 21.4077 147.985 23.5559 147.985C25.7041 147.985 27.4647 126.504 27.4647 124.549C27.4647 122.595 23.7607 115.58 22.5815 112.635C21.4022 109.689 20.4388 112.635 20.4388 112.635Z" fill="#5CB0FF" stroke="#263238" stroke-width="0.5" stroke-linecap="round" stroke-linejoin="round"/>
<path d="M58.8846 145.643C58.8126 147.858 58.4694 149.552 57.5448 149.552C55.7897 149.552 36.6444 151.501 32.1542 151.307C27.6641 151.113 24.3422 148.799 24.3422 145.477C24.3422 142.155 24.5359 127.506 27.8579 125.546C31.1798 123.586 48.7583 123.398 52.8609 123.398C57.9102 123.398 58.1261 133.153 58.342 136.458C58.403 137.41 58.9954 142.155 58.8846 145.643Z" fill="#5CB0FF" stroke="#263238" stroke-width="0.5" stroke-linecap="round" stroke-linejoin="round"/>
<path d="M53.8353 145.837C53.8353 145.837 66.3368 146.23 67.3112 144.276C68.2857 142.321 67.3112 138.219 64.7755 137.438C62.2398 136.658 51.6871 137.244 51.6871 137.244L53.8353 145.837Z" fill="white" stroke="#263238" stroke-width="0.5" stroke-linecap="round" stroke-linejoin="round"/>
<path d="M23.5559 127.478C22.8124 130.088 22.4836 132.799 22.5814 135.511C22.7752 139.813 23.9489 144.11 29.7789 147.625C35.6089 151.141 54.7819 147.039 54.7819 147.039L53.4144 121.449C53.4144 121.449 40.7191 119.887 33.6877 121.255C26.6563 122.622 23.7607 126.697 23.5559 127.478Z" fill="#263238" stroke="#263238" stroke-width="0.5" stroke-linecap="round" stroke-linejoin="round"/>
<path d="M115.113 37.4428C113.707 38.9234 112.605 40.6652 111.869 42.5696C110.823 45.504 107.368 54.296 107.473 55.968C107.578 57.6401 109.04 59.7384 110.507 58.5868C111.974 57.4352 115.529 51.262 115.739 50.9464C115.949 50.6308 116.16 46.2348 116.16 43.5108C116.16 40.7869 116.343 37.3376 115.113 37.4428Z" fill="white" stroke="#263238" stroke-width="0.5" stroke-linecap="round" stroke-linejoin="round"/>
<path d="M118.491 46.8437C119.637 46.6223 145.808 52.3803 145.808 55.3312C145.808 58.2822 139.901 74.5264 139.901 74.5264L114.804 67.8826C114.804 67.8826 115.308 47.4804 118.491 46.8437Z" fill="#5CB0FF" stroke="#263238" stroke-width="0.5" stroke-linecap="round" stroke-linejoin="round"/>
<path d="M127.333 34.0932C127.333 34.0932 121.68 33.462 117.699 35.4551C113.719 37.4483 113.724 40.7924 113.934 44.0368C114.145 47.2812 115.224 64.7822 115.54 66.039C115.856 67.2958 123.042 66.9636 127.228 67.7996C131.413 68.6356 134.348 65.1808 134.979 63.8188C135.61 62.4568 142.935 49.1636 142.935 46.34C142.935 43.5163 139.901 38.1736 135.604 35.66C133.122 34.168 130.189 33.6123 127.333 34.0932Z" fill="white" stroke="#263238" stroke-width="0.5" stroke-linecap="round" stroke-linejoin="round"/>
<path d="M123.352 44.8728L124.504 47.3864L120.002 63.088L121.049 66.122L124.088 63.8188L125.76 47.702L128.064 45.1884L126.912 42.3592L123.352 44.8728Z" fill="#263238" stroke="#263238" stroke-width="0.5" stroke-linecap="round" stroke-linejoin="round"/>
<path d="M123.668 38.384C123.048 39.5627 122.523 40.7882 122.095 42.0492C121.813 43.4264 121.674 44.829 121.68 46.2348C121.68 46.2348 125.029 44.6624 125.971 44.6624C126.912 44.6624 128.794 48.9588 128.794 48.9588C128.794 48.9588 131.624 44.7676 132.044 41.7612C132.465 38.7549 129.215 36.5292 126.912 36.5292C126.255 36.523 125.609 36.6915 125.039 37.0174C124.469 37.3433 123.995 37.815 123.668 38.384Z" fill="white" stroke="#263238" stroke-width="0.5" stroke-linecap="round" stroke-linejoin="round"/>
<path d="M135.599 35.35C135.599 35.35 136.651 33.7776 136.856 35.2448C137.06 36.712 135.809 37.858 135.078 38.2788C134.894 38.4062 134.674 38.4744 134.45 38.4744C134.225 38.4744 134.006 38.4062 133.822 38.2788" fill="white"/>
<path d="M135.599 35.35C135.599 35.35 136.651 33.7776 136.856 35.2448C137.06 36.712 135.809 37.858 135.078 38.2788C134.894 38.4062 134.674 38.4744 134.45 38.4744C134.225 38.4744 134.006 38.4062 133.822 38.2788" stroke="#263238" stroke-width="0.5" stroke-linecap="round" stroke-linejoin="round"/>
<path d="M124.925 29.2764C124.925 29.2764 123.878 28.4404 123.264 30.1124C122.649 31.7844 123.684 33.8828 123.684 33.8828L124.731 31.6682" fill="white"/>
<path d="M124.925 29.2764C124.925 29.2764 123.878 28.4404 123.264 30.1124C122.649 31.7844 123.684 33.8828 123.684 33.8828L124.731 31.6682" stroke="#263238" stroke-width="0.5" stroke-linecap="round" stroke-linejoin="round"/>
<path d="M124.925 43.306C124.877 43.4663 124.869 43.6356 124.899 43.8C124.93 43.9643 124.999 44.119 125.101 44.2514C125.204 44.3837 125.336 44.49 125.487 44.5615C125.638 44.6329 125.804 44.6675 125.971 44.6624C127.333 44.7676 130.157 41.8388 130.367 41.2076C130.577 40.5765 124.925 43.306 124.925 43.306Z" fill="white" stroke="#263238" stroke-width="0.5" stroke-linecap="round" stroke-linejoin="round"/>
<path d="M129.846 22.8928C129.846 22.8928 126.181 24.5537 125.345 27.1836C124.509 29.8135 123.131 35.1396 123.131 37.1494C123.131 39.1591 123.756 43.2396 125.118 43.8486C126.48 44.4576 130.981 41.5454 132.233 40.7094C133.484 39.8734 134.957 36.6289 136.529 34.741C138.101 32.853 139.353 29.4038 138.744 26.5801C138.135 23.7565 133.506 20.3792 129.846 22.8928Z" fill="white" stroke="#263238" stroke-width="0.5" stroke-linecap="round" stroke-linejoin="round"/>
<path d="M138.743 26.5579C138.112 23.7287 133.506 20.3791 129.846 22.8927C129.846 22.8927 126.181 24.5537 125.345 27.1835C124.946 28.4293 124.431 30.284 124 32.1055C124.714 30.9982 125.899 29.0881 125.971 28.6507C126.076 28.0196 126.076 27.9144 126.807 27.9144C127.537 27.9144 128.899 30.0072 130.787 30.428C132.675 30.8487 135.183 30.5332 135.183 31.5796C135.183 32.626 133.716 34.3035 134.657 34.824C135.394 35.2337 134.735 36.6455 134.801 37.26C135.323 36.3735 135.906 35.5243 136.545 34.7188C138.112 32.8364 139.369 29.3816 138.743 26.5579Z" fill="#263238" stroke="#263238" stroke-width="0.5" stroke-linecap="round" stroke-linejoin="round"/>
<path d="M125.03 33.0468C125.03 33.0468 128.695 34.8241 130.472 35.4552C132.249 36.0864 134.032 36.8117 133.401 37.9633C132.77 39.1149 130.683 39.6242 129.426 39.1149C128.169 38.6055 128.485 35.9757 127.765 35.8705C127.045 35.7653 126.513 37.1273 125.151 37.1273C123.79 37.1273 122.322 35.0344 122.533 33.5673C122.743 32.1001 125.03 33.0468 125.03 33.0468Z" fill="white" stroke="#263238" stroke-width="0.5" stroke-linecap="round" stroke-linejoin="round"/>
<path d="M133.717 36.9168L136.125 34.5084" stroke="#263238" stroke-width="0.5" stroke-linecap="round" stroke-linejoin="round"/>
<path d="M123.147 32.9416L124.398 30.1124" stroke="#263238" stroke-width="0.5" stroke-linecap="round" stroke-linejoin="round"/>
<path d="M152.38 55.143C152.38 55.143 145.437 61.3218 143.638 63.1101C141.838 64.8984 141.755 68.3366 143.466 69.1061C145.177 69.8757 150.581 66.7088 151.433 66.0223C152.286 65.3358 154.606 55.5693 152.38 55.143Z" fill="#263238" stroke="#263238" stroke-width="0.5" stroke-linecap="round" stroke-linejoin="round"/>
<path d="M169.737 70.59C169.737 70.59 179.066 79.9136 177.2 82.8978C175.334 85.8819 157.429 95.211 157.429 95.211L154.069 80.661L169.737 70.59Z" fill="#5CB0FF" stroke="#263238" stroke-width="0.5" stroke-linecap="round" stroke-linejoin="round"/>
<path d="M157.773 54.5451C157.773 54.5451 153.836 54.2018 152.38 55.143C150.924 56.0843 149.894 64.8265 149.612 70.0529C149.329 75.2794 148.671 79.4651 149.014 80.5004C149.357 81.5357 158.265 92.7528 159.533 94.2974C160.801 95.8421 171.188 80.0741 172.644 76.9016C174.1 73.7292 173.159 70.8115 171.271 66.4542C169.383 62.0969 165.363 58.0553 162.966 55.8296C162.279 55.1942 161.443 54.7431 160.535 54.5185C159.627 54.2938 158.676 54.303 157.773 54.5451Z" fill="#263238" stroke="#263238" stroke-width="0.5" stroke-linecap="round" stroke-linejoin="round"/>
<path d="M157.69 64.9096L157.629 65.2418C157.518 65.8563 157.28 67.2626 157.075 68.8516C156.815 70.9942 156.903 73.8345 157.59 73.8345C158.276 73.8345 167.268 67.3235 167.439 61.416C167.611 55.5085 158.376 62.4292 157.69 64.9096Z" fill="white" stroke="#263238" stroke-width="0.5" stroke-linecap="round" stroke-linejoin="round"/>
<path d="M157.263 53.2606C157.263 53.2606 156.405 56.4275 156.405 56.9424C156.47 57.5506 156.585 58.1525 156.748 58.7418C156.748 58.7418 155.292 61.0561 155.464 61.3107C155.667 61.5619 155.895 61.7919 156.145 61.9973C156.145 61.9973 155.979 65.2528 156.66 65.9393C157.341 66.6258 160.176 66.194 160.176 66.194C160.176 66.194 158.803 67.9103 160.347 67.9934C161.892 68.0764 166 64.6714 167.201 62.6838C168.403 60.6962 168.309 57.114 167.201 55.3147C166.094 53.5153 159.489 51.0294 157.263 53.2606Z" fill="white" stroke="#263238" stroke-width="0.5" stroke-linecap="round" stroke-linejoin="round"/>
<path d="M164.716 47.0874C164.716 47.0874 158.116 47.9456 156.92 50.5146C155.724 53.0835 158.459 56.256 160.43 56.6878C161.497 56.9389 162.591 57.0524 163.686 57.0255C163.686 57.0255 161.632 58.8249 162.916 59.2402C164.201 59.6554 164.799 59.4118 164.799 59.8381C164.799 60.2644 163.514 61.6375 164.627 61.7261C165.74 61.8146 166.083 59.8381 166.77 60.2699C167.456 60.7018 166.515 62.4071 166.858 62.4846C167.202 62.5621 170.457 59.1626 171.841 55.5417C173.225 51.9208 171.326 49.7173 169.959 48.5214C168.591 47.3255 166.344 46.6611 164.716 47.0874Z" fill="#263238" stroke="#263238" stroke-width="0.5" stroke-linecap="round" stroke-linejoin="round"/>
<path d="M164.715 62.0804C164.715 62.0804 165.917 59.3121 166.686 59.9433C167.456 60.5744 167.201 62.5122 166.343 63.1987C165.485 63.8853 163.857 63.1102 163.857 63.1102" fill="white"/>
<path d="M164.715 62.0804C164.715 62.0804 165.917 59.3121 166.686 59.9433C167.456 60.5744 167.201 62.5122 166.343 63.1987C165.485 63.8853 163.857 63.1102 163.857 63.1102" stroke="#263238" stroke-width="0.5" stroke-linecap="round" stroke-linejoin="round"/>
<path d="M157.092 69.6211L159.832 68.2536L159.406 72.3617" fill="white"/>
<path d="M157.092 69.6211L159.832 68.2536L159.406 72.3617" stroke="#263238" stroke-width="0.5" stroke-linecap="round" stroke-linejoin="round"/>
<path d="M178.895 142.388C178.895 142.388 173.967 152.088 174.161 153.849C174.321 155.282 177.738 166.234 178.989 170.198C179.037 170.355 179.045 170.521 179.014 170.682C178.982 170.843 178.912 170.994 178.808 171.121C178.705 171.248 178.572 171.348 178.421 171.412C178.27 171.476 178.106 171.502 177.942 171.488C177.748 171.47 177.563 171.396 177.41 171.274C177.258 171.152 177.144 170.987 177.084 170.801L171.625 154.042C171.625 154.042 170.645 152.869 167.523 152.287C165.125 151.833 153.216 151.274 147.774 151.036C146.771 150.98 145.787 151.315 145.027 151.971C144.267 152.627 143.791 153.552 143.699 154.552C143.696 154.577 143.696 154.603 143.699 154.629C143.522 156.883 139.823 168.537 138.976 171.117C138.93 171.258 138.835 171.379 138.708 171.456C138.581 171.533 138.431 171.562 138.284 171.538C138.201 171.524 138.122 171.493 138.052 171.448C137.981 171.403 137.921 171.344 137.874 171.275C137.826 171.205 137.794 171.127 137.778 171.045C137.762 170.962 137.763 170.878 137.78 170.796C138.445 167.773 141.296 154.74 142.331 148.185C142.331 148.185 163.032 149.159 167.722 147.985C172.411 146.812 177.926 140.04 177.926 140.04C177.926 140.04 179.088 140.04 178.895 142.388Z" fill="#263238" stroke="#263238" stroke-width="0.5" stroke-linecap="round" stroke-linejoin="round"/>
<path d="M182.2 110.226C182.2 110.226 187.592 132.754 186.136 136.563C184.68 140.373 178.634 145.422 176.492 145.256C174.349 145.09 174.166 123.541 174.31 121.593C174.454 119.644 178.673 112.906 180.057 110.043C181.441 107.181 182.2 110.226 182.2 110.226Z" fill="#5CB0FF" stroke="#263238" stroke-width="0.5" stroke-linecap="round" stroke-linejoin="round"/>
<path d="M140.028 145.643C140.095 147.858 140.444 149.552 141.363 149.552C143.123 149.552 162.263 151.501 166.759 151.307C171.254 151.113 174.554 148.799 174.554 145.477C174.554 142.155 174.355 127.478 171.033 125.546C167.711 123.613 150.132 123.398 146.03 123.398C140.981 123.398 140.759 133.153 140.549 136.458C140.488 137.41 139.901 142.155 140.028 145.643Z" fill="#5CB0FF" stroke="#263238" stroke-width="0.5" stroke-linecap="round" stroke-linejoin="round"/>
<path d="M173.159 127.472C173.159 127.472 171.542 131.42 171.542 134.554C171.542 137.687 170.025 143.855 166.892 145.671C163.758 147.487 160.248 148.506 155.06 147.797C149.872 147.088 138.583 145.267 138.583 145.267C138.583 145.267 150.21 136.962 153.139 132.832C156.068 128.702 157.081 125.252 159.406 122.927C161.732 120.602 172.954 118.276 173.159 127.472Z" fill="#263238" stroke="#263238" stroke-width="0.5" stroke-linecap="round" stroke-linejoin="round"/>
<path d="M103.592 158.865C137.915 158.865 165.74 137.361 165.74 110.835C165.74 84.3091 137.915 62.8056 103.592 62.8056C69.2689 62.8056 41.4445 84.3091 41.4445 110.835C41.4445 137.361 69.2689 158.865 103.592 158.865Z" fill="#263238" stroke="#263238" stroke-width="0.5" stroke-linecap="round" stroke-linejoin="round"/>
<path d="M103.592 157.425C137.915 157.425 165.74 135.922 165.74 109.396C165.74 82.8697 137.915 61.3661 103.592 61.3661C69.2689 61.3661 41.4445 82.8697 41.4445 109.396C41.4445 135.922 69.2689 157.425 103.592 157.425Z" fill="#85C3FF" stroke="#263238" stroke-width="0.5" stroke-linecap="round" stroke-linejoin="round"/>
<path d="M134.386 79.9025L142.271 88.5561L128.302 98.5772L120.252 88.8108L134.386 79.9025Z" fill="white" stroke="#263238" stroke-width="0.5" stroke-linecap="round" stroke-linejoin="round"/>
<path d="M91.7439 80.6499L78.8438 87.2827L90.2712 101.285L103.537 92.4427L91.7439 80.6499Z" fill="white" stroke="#263238" stroke-width="0.5" stroke-linecap="round" stroke-linejoin="round"/>
<path d="M111.304 94.674L98.4098 101.307L109.832 115.309L123.097 106.467L111.304 94.674Z" fill="white" stroke="#263238" stroke-width="0.5" stroke-linecap="round" stroke-linejoin="round"/>
<path d="M109.865 95.6927L95.9738 99.8452L104.633 115.707L119.294 109.446L109.865 95.6927Z" fill="white" stroke="#263238" stroke-width="0.5" stroke-linecap="round" stroke-linejoin="round"/>
<path d="M93.2887 72.7825C93.2887 72.7825 95.7968 71.8468 95.7968 72.4725C95.7968 73.0981 95.7968 73.7237 94.6895 74.0393C93.5822 74.3549 89.8339 73.5687 90.7751 73.0981C91.5781 72.8029 92.4378 72.695 93.2887 72.7825Z" fill="white" stroke="#263238" stroke-width="0.5" stroke-linecap="round" stroke-linejoin="round"/>
<path d="M79.4142 45.8749C79.4142 45.8749 76.1642 47.0209 74.5365 49.0362C72.9087 51.0515 72.1447 56.3057 71.7682 58.6034C71.3917 60.901 69.6643 69.61 70.6221 70.662C71.5799 71.7139 81.817 75.2573 83.8268 75.8331C85.8365 76.4089 88.256 77.2671 89.5737 77.1729C90.5364 77.0348 91.4538 76.6746 92.2534 76.121C92.2534 76.121 94.551 77.1729 95.1213 77.1729C95.6916 77.1729 96.4612 76.121 95.7912 75.0635C95.1213 74.006 93.2555 72.4724 92.2036 72.4724C91.1516 72.4724 87.276 73.0538 87.276 73.0538C87.276 73.0538 80.6709 69.7041 78.7553 68.3643C77.5546 67.5113 76.4335 66.5514 75.4057 65.4964L79.3311 53.244" fill="#263238"/>
<path d="M79.4142 45.8749C79.4142 45.8749 76.1642 47.0209 74.5365 49.0362C72.9087 51.0515 72.1447 56.3057 71.7682 58.6034C71.3917 60.901 69.6643 69.61 70.6221 70.662C71.5799 71.7139 81.817 75.2573 83.8268 75.8331C85.8365 76.4089 88.256 77.2671 89.5737 77.1729C90.5364 77.0348 91.4538 76.6746 92.2534 76.121C92.2534 76.121 94.551 77.1729 95.1213 77.1729C95.6916 77.1729 96.4612 76.121 95.7912 75.0635C95.1213 74.006 93.2555 72.4724 92.2036 72.4724C91.1516 72.4724 87.276 73.0538 87.276 73.0538C87.276 73.0538 80.6709 69.7041 78.7553 68.3643C77.5546 67.5113 76.4335 66.5514 75.4057 65.4964L79.3311 53.244" stroke="#263238" stroke-width="0.5" stroke-linecap="round" stroke-linejoin="round"/>
<path d="M92.1925 72.4725C91.1405 72.4725 87.265 73.0539 87.265 73.0539C87.265 73.0539 86.5341 72.6885 85.4933 72.1459C84.6849 72.6944 84.0661 73.4796 83.7216 74.3937C83.5988 74.8341 83.53 75.2877 83.5167 75.7446L83.8157 75.8332C85.8255 76.3869 88.2449 77.2672 89.5626 77.1731C90.5253 77.0349 91.4427 76.6748 92.2423 76.1211C92.2423 76.1211 94.54 77.1731 95.1102 77.1731C95.6805 77.1731 96.4501 76.1211 95.7802 75.0636C95.1102 74.0062 93.2444 72.4725 92.1925 72.4725Z" fill="white" stroke="#263238" stroke-width="0.5" stroke-linecap="round" stroke-linejoin="round"/>
<path d="M48.3596 55.359C48.0662 55.4476 45.8405 57.8781 45.6467 60.6907C45.4529 63.5032 47.5845 68.1484 47.972 68.9235C48.3596 69.6986 47.8779 71.0551 48.8468 71.0551C49.8157 71.0551 52.8221 66.5982 52.8221 66.5982C52.8221 66.5982 56.2104 66.7919 56.598 65.9227C56.9855 65.0535 53.8851 60.2034 53.2096 58.1715C52.5342 56.1396 50.0095 54.8773 48.3596 55.359Z" fill="white" stroke="#263238" stroke-width="0.5" stroke-linecap="round" stroke-linejoin="round"/>
<path d="M48.1657 53.9084C48.1724 55.2414 48.0426 56.5716 47.7782 57.8781C47.3906 59.2345 47.2965 59.9155 48.747 62.0471C50.2037 63.9629 51.7909 65.7759 53.4974 67.4729C53.4974 67.4729 53.6912 65.2583 53.7908 63.9849C53.8905 62.7115 55.8227 61.9474 56.2103 61.3661C56.5978 60.7848 54.0787 60.3972 53.1098 58.6532C52.1409 56.9092 52.1409 53.9084 50.7845 53.615C49.428 53.3215 48.6751 52.5519 48.1657 53.9084Z" fill="white" stroke="#263238" stroke-width="0.5" stroke-linecap="round" stroke-linejoin="round"/>
<path d="M61.1545 47.9954C61.1545 47.9954 63.8674 47.2203 63.3691 44.5074C62.8708 41.7945 57.9433 39.7626 52.6172 40.2443C47.291 40.726 44.866 44.2195 44.3788 47.7075C43.8916 51.1956 47.5734 54.5839 47.9609 55.1653C48.3485 55.7466 47.8668 56.3279 49.0295 56.7155C49.8207 56.9377 50.6578 56.9377 51.4489 56.7155C51.7355 57.1277 52.1353 57.448 52.6001 57.6376C53.0649 57.8273 53.5747 57.8781 54.0677 57.784C55.7287 57.3965 55.2304 54.1022 55.9114 53.7147C56.5924 53.3271 57.0741 52.0537 59.106 50.9021C61.1379 49.7505 61.1545 47.9954 61.1545 47.9954Z" fill="#263238" stroke="#263238" stroke-width="0.5" stroke-linecap="round" stroke-linejoin="round"/>
<path d="M52.9162 56.0399C52.9162 56.0399 53.11 54.4897 51.1722 54.2959C49.2344 54.1021 49.7216 55.9569 50.1092 56.815C50.4967 57.6732 51.8476 58.3653 51.8476 58.3653C51.8476 58.3653 52.3349 60.5799 53.0159 60.7847C53.6968 60.9896 57.7607 62.7225 58.5524 62.4457C59.3441 62.1689 60.1026 58.5701 60.1026 58.5701C60.1026 58.5701 61.4591 57.8891 61.4591 57.2137C61.4591 56.5382 60.8556 54.5838 60.8556 54.1243C60.8556 53.6647 61.9241 52.2806 62.1179 51.2176C62.3117 50.1546 61.149 48.0175 61.149 48.0175C61.149 48.0175 60.6618 49.7615 59.1116 49.7615C58.0615 49.7373 57.0191 49.5754 56.0111 49.2798C56.0111 49.2798 56.7862 51.3117 56.2049 52.1865C55.6236 53.0612 54.6547 52.8619 54.4609 53.2495C54.2671 53.637 54.3668 55.3811 54.2671 55.7686C54.1675 56.1562 53.4975 57.4905 52.9162 56.0399Z" fill="white" stroke="#263238" stroke-width="0.5" stroke-linecap="round" stroke-linejoin="round"/>
<path d="M62.3169 66.5981C62.3169 66.5981 62.7986 70.4737 63.7675 72.0239C64.7364 73.5742 68.8057 79.5813 68.8057 79.5813C68.8057 79.5813 68.5178 81.6188 68.8057 82.2001C69.3859 83.4201 69.8726 84.6824 70.2618 85.976C70.2618 86.3636 71.0369 86.657 71.1311 86.0757C71.1959 85.6264 71.2292 85.1732 71.2307 84.7192L72.8917 87.2384C72.8917 87.2384 73.7664 87.9138 74.0543 87.3325C74.3422 86.7511 74.154 83.6507 74.3478 82.3939C74.5416 81.1371 73.5727 79.3875 72.7976 78.6124C72.0224 77.8373 71.0535 76.4809 70.7601 76.193C70.4667 75.9051 69.2099 71.3485 68.6285 68.248C68.0472 65.1476 66.497 63.2098 65.3343 63.016" fill="white"/>
<path d="M62.3169 66.5981C62.3169 66.5981 62.7986 70.4737 63.7675 72.0239C64.7364 73.5742 68.8057 79.5813 68.8057 79.5813C68.8057 79.5813 68.5178 81.6188 68.8057 82.2001C69.3859 83.4201 69.8726 84.6824 70.2618 85.976C70.2618 86.3636 71.0369 86.657 71.1311 86.0757C71.1959 85.6264 71.2292 85.1732 71.2307 84.7192L72.8917 87.2384C72.8917 87.2384 73.7664 87.9138 74.0543 87.3325C74.3422 86.7511 74.154 83.6507 74.3478 82.3939C74.5416 81.1371 73.5727 79.3875 72.7976 78.6124C72.0224 77.8373 71.0535 76.4809 70.7601 76.193C70.4667 75.9051 69.2099 71.3485 68.6285 68.248C68.0472 65.1476 66.497 63.2098 65.3343 63.016" stroke="#263238" stroke-width="0.5" stroke-linecap="round" stroke-linejoin="round"/>
<path d="M74.0381 87.3436C74.3315 86.79 74.1378 83.6618 74.3315 82.405C74.5253 81.1482 73.5564 79.3987 72.7813 78.6236C72.2226 78.0301 71.6959 77.4073 71.2034 76.7578C70.0317 77.0881 68.9802 77.7494 68.1749 78.6623L68.8061 79.5925C68.8061 79.5925 68.5182 81.6299 68.8061 82.2112C69.3862 83.4313 69.873 84.6935 70.2622 85.9872C70.2622 86.3747 71.0373 86.6682 71.1314 86.0868C71.1962 85.6375 71.2295 85.1843 71.2311 84.7304L72.8921 87.2495C72.8921 87.2495 73.7502 87.8973 74.0381 87.3436Z" fill="white" stroke="#263238" stroke-width="0.5" stroke-linecap="round" stroke-linejoin="round"/>
<path d="M39.0583 62.7227C37.7936 63.7251 36.9057 65.1263 36.5392 66.6979C35.8637 69.4108 38.0894 80.4562 38.6707 83.6508C39.2521 86.8454 42.1588 97.4921 43.0335 98.1842C43.9083 98.8763 54.0789 97.6029 57.7607 96.9274C61.4425 96.2519 69.3875 93.4394 71.0484 92.9522C72.7094 92.465 73.5675 89.9514 74.0492 89.4641C74.5309 88.9769 75.5995 87.3326 75.0181 86.7512C74.4368 86.1699 72.8035 86.7512 72.1114 86.7512C71.4194 86.7512 70.1736 86.6571 68.8172 86.6571C68.1455 86.6751 67.4981 86.912 66.9734 87.3318C66.4488 87.7515 66.0755 88.3311 65.9105 88.9825C65.7249 89.7171 65.3956 90.4077 64.9416 91.0144C64.9416 91.0144 54.9758 92.3708 52.8332 92.3708C51.4389 92.3607 50.0466 92.2645 48.6642 92.0829C48.6642 92.0829 47.5015 85.3948 46.6267 81.2313C45.752 77.0678 44.9658 73.8677 44.3014 72.7992" fill="white"/>
<path d="M39.0583 62.7227C37.7936 63.7251 36.9057 65.1263 36.5392 66.6979C35.8637 69.4108 38.0894 80.4562 38.6707 83.6508C39.2521 86.8454 42.1588 97.4921 43.0335 98.1842C43.9083 98.8763 54.0789 97.6029 57.7607 96.9274C61.4425 96.2519 69.3875 93.4394 71.0484 92.9522C72.7094 92.465 73.5675 89.9514 74.0492 89.4641C74.5309 88.9769 75.5995 87.3326 75.0181 86.7512C74.4368 86.1699 72.8035 86.7512 72.1114 86.7512C71.4194 86.7512 70.1736 86.6571 68.8172 86.6571C68.1455 86.6751 67.4981 86.912 66.9734 87.3318C66.4488 87.7515 66.0755 88.3311 65.9105 88.9825C65.7249 89.7171 65.3956 90.4077 64.9416 91.0144C64.9416 91.0144 54.9758 92.3708 52.8332 92.3708C51.4389 92.3607 50.0466 92.2645 48.6642 92.0829C48.6642 92.0829 47.5015 85.3948 46.6267 81.2313C45.752 77.0678 44.9658 73.8677 44.3014 72.7992" stroke="#263238" stroke-width="0.5" stroke-linecap="round" stroke-linejoin="round"/>
<path d="M72.1003 86.7512C71.4248 86.7512 70.1625 86.657 68.806 86.657C68.1343 86.6751 67.4869 86.912 66.9623 87.3317C66.4376 87.7515 66.0644 88.3311 65.8993 88.9824C65.7138 89.7171 65.3844 90.4077 64.9304 91.0143L64.2273 91.1084C64.5068 91.6873 64.6794 92.3119 64.7367 92.9521C64.7657 93.6522 64.723 94.3535 64.6093 95.0449C67.4772 94.1369 70.1459 93.2123 71.0372 92.9521C72.6982 92.4704 73.5564 89.9513 74.038 89.4641C74.5197 88.9769 75.5883 87.3325 75.0069 86.7512C74.4256 86.1698 72.7813 86.7512 72.1003 86.7512Z" fill="white" stroke="#263238" stroke-width="0.5" stroke-linecap="round" stroke-linejoin="round"/>
<path d="M65.5449 105.011C65.5449 105.011 68.0419 105.216 68.8668 105.216C69.6918 105.216 75.4221 104.595 74.5916 103.66C73.7611 102.724 67.5049 101.888 67.5049 101.888L65.5449 105.011Z" fill="white" stroke="#263238" stroke-width="0.5" stroke-linecap="round" stroke-linejoin="round"/>
<path d="M78.0244 99.3911L59.8258 107.818L66.896 122.168L84.7845 113.122L78.0244 99.3911Z" fill="white" stroke="#263238" stroke-width="0.5" stroke-linecap="round" stroke-linejoin="round"/>
<path d="M65.8381 104.175C65.8381 104.175 68.0195 104.175 68.54 104.49C69.0604 104.806 71.2418 106.777 71.5574 106.256C71.873 105.736 70.6217 104.49 70.1013 103.97C69.5808 103.449 69.0604 103.034 69.0604 103.034" fill="white"/>
<path d="M65.8381 104.175C65.8381 104.175 68.0195 104.175 68.54 104.49C69.0604 104.806 71.2418 106.777 71.5574 106.256C71.873 105.736 70.6217 104.49 70.1013 103.97C69.5808 103.449 69.0604 103.034 69.0604 103.034" stroke="#263238" stroke-width="0.5" stroke-linecap="round" stroke-linejoin="round"/>
<path d="M48.7582 97.0048L67.4994 101.888L64.5651 106.184L44.8384 103.842C44.8384 103.842 40.16 97.3979 48.7582 97.0048Z" fill="white" stroke="#263238" stroke-width="0.5" stroke-linecap="round" stroke-linejoin="round"/>
<path d="M35.4925 97.8242C35.4925 97.8242 30.9249 101.7 29.4023 106.406C27.8798 111.112 26.9109 120.524 26.9109 120.524C26.9109 120.524 22.0664 127.445 22.0664 128.137C22.0664 128.829 26.0804 128.137 26.0804 128.137L22.2048 134.781C22.2048 134.781 22.2048 140.317 25.2499 143.224C26.6557 144.559 28.3425 145.563 30.1867 146.162C32.0309 146.761 33.9857 146.939 35.9078 146.684C39.2297 146.131 45.3199 138.656 46.012 138.241C46.704 137.826 44.351 131.459 43.7973 129.106C43.2437 126.753 44.351 125.092 45.0431 124.676C45.7351 124.261 49.7491 121.77 50.5796 119.97C51.4101 118.171 51.2717 115.126 50.9948 112.773C50.718 110.42 47.2577 102.253 44.2126 99.762C41.1675 97.2706 38.3992 95.6096 35.4925 97.8242Z" fill="white" stroke="#263238" stroke-width="0.5" stroke-linecap="round" stroke-linejoin="round"/>
<path d="M38.261 97.1322C38.261 97.1322 36.1848 100.177 36.1848 102.392C36.1848 104.607 37.9842 108.205 39.3683 109.866C40.1819 110.847 41.0605 111.772 41.9982 112.635L45.0433 111.942L45.1817 114.295C45.1817 114.295 45.8738 113.05 47.8116 113.88C49.7493 114.711 50.9951 114.157 50.9951 113.742C51.6569 111.06 51.6569 108.257 50.9951 105.575C49.8878 100.731 48.642 99.9005 46.8427 98.1011C45.0433 96.3017 40.8909 95.6097 38.261 97.1322Z" fill="white" stroke="#263238" stroke-width="0.5" stroke-linecap="round" stroke-linejoin="round"/>
<path d="M39.645 97.8243C39.645 97.8243 38.1225 100.454 38.953 102.53C39.7834 104.607 42.4133 107.098 44.4895 108.897C46.5657 110.697 49.1955 112.635 49.1955 112.635C49.6652 111.103 49.8215 109.492 49.655 107.899C49.4885 106.306 49.0028 104.762 48.2267 103.361C45.5968 98.378 40.8907 96.8554 39.645 97.8243Z" fill="white" stroke="#263238" stroke-width="0.5" stroke-linecap="round" stroke-linejoin="round"/>
<path d="M51.6871 85.2286C52.0751 86.1273 52.3988 87.0524 52.656 87.9968V88.9657C52.656 88.9657 54.5938 90.073 54.317 90.4883C54.0401 90.9035 52.9328 92.7029 52.9328 92.7029C53.0844 94.225 53.0379 95.7604 52.7944 97.2705C52.3792 99.0699 52.9328 99.9004 51.4103 99.9004H47.5347C47.5347 99.9004 47.1195 105.714 46.1506 105.714C45.1817 105.714 40.7524 103.638 39.922 102.53C39.0915 101.423 38.8147 100.316 39.0915 99.4852C39.9529 97.2665 40.6922 95.0024 41.3061 92.7029C41.8598 90.2115 46.0122 88.2737 46.9811 87.8584C47.9499 87.4432 51.6871 85.2286 51.6871 85.2286Z" fill="white" stroke="#263238" stroke-width="0.5" stroke-linecap="round" stroke-linejoin="round"/>
<path d="M36.3233 95.0559C36.3233 95.0559 33.0014 94.5023 31.3404 94.7791C29.6795 95.0559 27.6033 97.409 27.6033 99.762C27.6033 102.115 29.4026 103.499 32.3093 103.776C35.216 104.053 37.1538 101.561 37.1538 100.177C37.1554 98.4365 36.8749 96.707 36.3233 95.0559Z" fill="#263238" stroke="#263238" stroke-width="0.5" stroke-linecap="round" stroke-linejoin="round"/>
<path d="M44.7664 94.3639C44.7664 94.3639 50.0261 88.6889 51.687 85.2286C53.348 81.7682 52.7944 78.1695 50.1645 78.1695C47.5346 78.1695 44.628 77.339 39.6451 79.1384C34.6622 80.9378 32.586 86.7511 32.8628 89.7962C33.1396 92.8413 37.7073 99.0699 40.0603 99.4852C42.4133 99.9004 42.4133 95.748 42.4133 95.748L44.7664 94.3639Z" fill="#263238" stroke="#263238" stroke-width="0.5" stroke-linecap="round" stroke-linejoin="round"/>
<path d="M45.4584 95.3328C45.4584 95.3328 44.2127 92.5646 42.6901 93.395C41.1676 94.2255 42.5517 97.2706 43.5206 97.9627C44.4895 98.6548 46.0121 97.5475 46.0121 97.5475" fill="white"/>
<path d="M45.4584 95.3328C45.4584 95.3328 44.2127 92.5646 42.6901 93.395C41.1676 94.2255 42.5517 97.2706 43.5206 97.9627C44.4895 98.6548 46.0121 97.5474 46.0121 97.5474" stroke="#263238" stroke-width="0.5" stroke-linecap="round" stroke-linejoin="round"/>
<path d="M52.6557 88.9658C52.6557 88.9658 52.1021 90.7652 51.41 91.042" stroke="#263238" stroke-width="0.5" stroke-linecap="round" stroke-linejoin="round"/>
<path d="M63.2696 114.03C63.2696 114.03 62.2065 113.321 62.0681 114.24C61.9297 115.159 62.9872 116.15 62.9872 116.15C62.9872 116.15 61.6418 114.666 61.5698 115.513C61.4979 116.361 62.3505 117.285 62.3505 117.285C62.3505 117.285 61.2875 116.787 61.2875 117.213C61.2875 117.639 62.7768 119.123 62.8432 119.826C62.9097 120.53 64.2606 118.343 64.543 116.648C64.603 116.136 64.5149 115.617 64.2892 115.153C64.0636 114.689 63.7097 114.299 63.2696 114.03Z" fill="white" stroke="#263238" stroke-width="0.5" stroke-linecap="round" stroke-linejoin="round"/>
<path d="M61.2374 124.538C61.5716 123.314 61.8031 122.064 61.9295 120.801C61.9295 119.694 63.1752 117.756 63.7289 116.648C64.2825 115.541 61.9295 113.603 63.0368 113.05C64.1441 112.496 64.9746 113.603 65.9435 114.849C66.9124 116.095 67.1892 118.725 66.3587 120.524C65.5756 122.189 64.5494 123.728 63.3136 125.092C62.9082 125.526 62.442 125.899 61.9295 126.199L61.2374 124.538Z" fill="white" stroke="#263238" stroke-width="0.5" stroke-linecap="round" stroke-linejoin="round"/>
<path d="M62.2838 121.881V118.376C62.2838 116.621 63.2693 114.03 63.2693 114.03C63.4314 114.008 63.5964 114.027 63.7493 114.085C63.9023 114.142 64.0385 114.237 64.1456 114.361C64.2527 114.485 64.3274 114.633 64.3629 114.792C64.3984 114.952 64.3936 115.118 64.3489 115.275C64.2583 116.414 64.3272 117.56 64.5538 118.68" fill="white"/>
<path d="M62.2838 121.881V118.376C62.2838 116.621 63.2693 114.03 63.2693 114.03C63.4314 114.008 63.5964 114.027 63.7493 114.085C63.9023 114.142 64.0385 114.237 64.1456 114.361C64.2527 114.485 64.3274 114.633 64.3629 114.792C64.3984 114.952 64.3936 115.118 64.3489 115.275C64.2583 116.414 64.3272 117.56 64.5538 118.68" stroke="#263238" stroke-width="0.5" stroke-linecap="round" stroke-linejoin="round"/>
<path d="M31.617 119.832C31.617 119.832 29.6792 122.6 30.6481 125.645C31.617 128.69 45.4584 147.099 47.3962 147.099C49.3339 147.099 63.3137 128.967 64.1442 127.86C64.9747 126.753 61.3759 123.984 61.3759 123.984L47.3962 136.718C47.3962 136.718 43.659 121.77 42.1364 119.002C40.6139 116.233 37.0151 115.956 37.0151 115.956" fill="white"/>
<path d="M31.617 119.832C31.617 119.832 29.6792 122.6 30.6481 125.645C31.617 128.69 45.4584 147.099 47.3962 147.099C49.3339 147.099 63.3137 128.967 64.1442 127.86C64.9747 126.753 61.3759 123.984 61.3759 123.984L47.3962 136.718C47.3962 136.718 43.659 121.77 42.1364 119.002C40.6139 116.233 37.0151 115.956 37.0151 115.956" stroke="#263238" stroke-width="0.5" stroke-linecap="round" stroke-linejoin="round"/>
<path d="M98.5594 61.189C98.5594 61.189 100.47 59.0851 102.479 58.6975C104.489 58.31 105.541 59.6554 104.971 62.0471C104.4 64.4389 102.579 65.0147 101.521 64.9206C100.464 64.8265 98.7532 64.367 98.2715 63.1046C98.1172 62.7944 98.062 62.4441 98.1135 62.1014C98.165 61.7587 98.3207 61.4402 98.5594 61.189Z" fill="#263238" stroke="#263238" stroke-width="0.5" stroke-linecap="round" stroke-linejoin="round"/>
<path d="M99.7055 60.6132C99.7055 60.6132 95.5918 61.1668 94.634 61.8589C93.6762 62.5509 91.4727 66.2604 91.4727 66.7366C91.4727 67.2127 92.8125 67.6944 93.4824 67.6944C94.1523 67.6944 95.8797 65.3967 95.8797 65.3967L95.016 67.7941C95.016 67.7941 95.8797 67.6944 95.9739 67.3124C96.068 66.9304 97.4078 64.3448 97.4078 64.3448C97.4078 64.3448 99.8993 64.4444 100.569 63.2928C101.239 62.1412 101.715 61.3772 99.7055 60.6132Z" fill="white" stroke="#263238" stroke-width="0.5" stroke-linecap="round" stroke-linejoin="round"/>
<path d="M107.966 54.296C107.966 54.296 106.814 58.1715 106.814 60.5744C106.814 62.9773 108.47 70.734 108.47 70.734C108.241 72.0466 107.667 73.275 106.809 74.2939C105.447 75.7611 105.867 77.7488 106.493 78.3744C107.119 79 108.381 80.1571 108.796 79.4208C109.212 78.6844 108.902 77.328 109.322 76.8075C109.743 76.2871 111.31 75.4455 111.537 73.8732C111.764 72.3008 111.432 67.4895 111.432 64.8708C111.432 62.252 112.794 58.3819 111.327 55.6635" fill="white"/>
<path d="M107.966 54.296C107.966 54.296 106.814 58.1715 106.814 60.5744C106.814 62.9773 108.47 70.734 108.47 70.734C108.241 72.0466 107.667 73.275 106.809 74.2939C105.447 75.7611 105.867 77.7488 106.493 78.3744C107.119 79 108.381 80.1571 108.796 79.4208C109.212 78.6844 108.902 77.328 109.322 76.8075C109.743 76.2871 111.31 75.4455 111.537 73.8732C111.764 72.3008 111.432 67.4895 111.432 64.8708C111.432 62.252 112.794 58.3819 111.327 55.6635" stroke="#263238" stroke-width="0.5" stroke-linecap="round" stroke-linejoin="round"/>
<path d="M111.543 69.4938C109.843 69.156 108.907 69.7318 108.409 70.3519C108.459 70.59 108.492 70.7284 108.492 70.7284C108.263 72.0411 107.69 73.2695 106.831 74.2884C105.469 75.7556 105.89 77.7432 106.516 78.3688C107.141 78.9945 108.404 80.1516 108.819 79.4152C109.234 78.6789 108.924 77.3224 109.345 76.802C109.766 76.2816 111.332 75.44 111.559 73.8676C111.641 72.4107 111.636 70.9501 111.543 69.4938Z" fill="white" stroke="#263238" stroke-width="0.5" stroke-linecap="round" stroke-linejoin="round"/>
<path d="M114.455 69.3665L104.406 80.7773L114.56 88.0024L124.293 75.6504L114.455 69.3665Z" fill="white" stroke="#263238" stroke-width="0.5" stroke-linecap="round" stroke-linejoin="round"/>
<path d="M110.059 74.0559C110.059 74.0559 110.164 77.6159 110.164 78.1418C110.164 78.6678 111.316 79.2934 111.421 78.0366C111.438 77.3347 111.508 76.6351 111.631 75.9438C111.737 75.6283 112.362 73.6406 111.526 72.1735" fill="white"/>
<path d="M110.059 74.0559C110.059 74.0559 110.164 77.6159 110.164 78.1418C110.164 78.6678 111.316 79.2934 111.421 78.0366C111.438 77.3347 111.508 76.6351 111.631 75.9438C111.737 75.6283 112.362 73.6406 111.526 72.1735" stroke="#263238" stroke-width="0.5" stroke-linecap="round" stroke-linejoin="round"/>
<path d="M138.323 46.34C138.323 46.34 135.499 49.4792 134.137 52.4301C132.775 55.3811 131.729 62.8942 131.729 62.8942C131.729 62.8942 126.286 71.7914 125.55 72.5278C124.814 73.2641 125.24 73.1534 123.457 73.9894C121.675 74.8254 119.377 75.2462 119.061 75.7722C118.746 76.2982 117.594 78.8062 117.284 79.1218C116.974 79.4374 117.699 80.063 118.12 79.6422C118.541 79.2215 120.002 77.5494 120.002 77.5494L118.225 81.735C118.228 81.8119 118.248 81.8872 118.281 81.9562C118.315 82.0252 118.363 82.0864 118.422 82.1359C118.481 82.1854 118.55 82.2221 118.623 82.2436C118.697 82.2651 118.775 82.2711 118.851 82.261C119.619 82.1181 120.364 81.8723 121.066 81.5302C121.066 81.5302 122.848 81.1094 123.474 80.2734C124.1 79.4374 126.408 74.9306 126.408 74.9306C126.408 74.9306 132.498 71.0551 134.674 68.4418C136.378 66.3769 137.723 64.0415 138.655 61.5322C138.965 60.4858 142.841 48.8702 142.736 46.9822C142.63 45.0942 141.689 44.7676 141.689 44.7676" fill="white"/>
<path d="M138.323 46.34C138.323 46.34 135.499 49.4792 134.137 52.4301C132.775 55.3811 131.729 62.8942 131.729 62.8942C131.729 62.8942 126.286 71.7914 125.55 72.5278C124.814 73.2641 125.24 73.1534 123.457 73.9894C121.675 74.8254 119.377 75.2462 119.061 75.7722C118.746 76.2982 117.594 78.8062 117.284 79.1218C116.974 79.4374 117.699 80.063 118.12 79.6422C118.541 79.2215 120.002 77.5494 120.002 77.5494L118.225 81.735C118.228 81.8119 118.248 81.8872 118.281 81.9562C118.315 82.0252 118.363 82.0864 118.422 82.1359C118.481 82.1854 118.55 82.2221 118.623 82.2436C118.697 82.2651 118.775 82.2711 118.851 82.261C119.619 82.1181 120.364 81.8723 121.066 81.5302C121.066 81.5302 122.848 81.1094 123.474 80.2734C124.1 79.4374 126.408 74.9306 126.408 74.9306C126.408 74.9306 132.498 71.0551 134.674 68.4418C136.378 66.3769 137.723 64.0415 138.655 61.5322C138.965 60.4858 142.841 48.8702 142.736 46.9822C142.63 45.0942 141.689 44.7676 141.689 44.7676" stroke="#263238" stroke-width="0.5" stroke-linecap="round" stroke-linejoin="round"/>
<path d="M125.24 72.8434C124.897 73.2365 124.908 73.2919 123.457 73.9508C121.68 74.7923 119.377 75.2075 119.061 75.7335C118.746 76.2595 117.594 78.7675 117.284 79.0831C116.974 79.3987 117.699 80.0243 118.12 79.6036C118.541 79.1828 120.002 77.5107 120.002 77.5107L118.225 81.6964C118.228 81.7732 118.248 81.8485 118.281 81.9175C118.315 81.9865 118.363 82.0477 118.422 82.0972C118.481 82.1467 118.55 82.1834 118.623 82.2049C118.697 82.2265 118.775 82.2324 118.851 82.2223C119.619 82.0794 120.364 81.8336 121.066 81.4915C121.066 81.4915 122.848 81.0707 123.474 80.2347C124.1 79.3987 126.408 74.892 126.408 74.892C126.408 74.892 126.785 74.6539 127.394 74.2497C126.836 73.5726 126.084 73.0819 125.24 72.8434Z" fill="white" stroke="#263238" stroke-width="0.5" stroke-linecap="round" stroke-linejoin="round"/>
<path d="M166.77 76.1321C166.77 76.1321 164.455 80.5004 164.029 82.2223C163.603 83.9442 162.922 85.821 162.922 85.821C162.922 85.821 158.637 85.1345 154.955 84.7137C151.273 84.293 146.046 83.3407 144.756 83.086C143.466 82.8313 141.075 82.1393 140.56 82.5711C140.045 83.003 140.388 82.9144 140.992 83.1691C141.49 83.3214 142.018 83.3518 142.531 83.2576C142.531 83.2576 141.673 83.5123 140.731 83.8556C139.79 84.1988 138.074 84.7968 137.819 85.1401C137.564 85.4833 138.162 86.6847 139.104 86.6847C139.817 86.6394 140.533 86.6394 141.246 86.6847C141.761 86.7678 142.016 87.2827 143.732 87.2827C145.448 87.2827 147.84 85.9096 147.84 85.9096C147.84 85.9096 155.896 89.597 160.436 90.3666C164.976 91.1361 165.662 90.1119 167.55 88.6502C169.438 87.1886 174.914 78.2028 174.488 76.4034C174.209 75.2772 173.745 74.2051 173.115 73.231" fill="#263238"/>
<path d="M166.77 76.1321C166.77 76.1321 164.455 80.5004 164.029 82.2223C163.603 83.9442 162.922 85.821 162.922 85.821C162.922 85.821 158.637 85.1345 154.955 84.7137C151.273 84.293 146.046 83.3407 144.756 83.086C143.466 82.8313 141.075 82.1393 140.56 82.5711C140.045 83.003 140.388 82.9144 140.992 83.1691C141.49 83.3214 142.018 83.3518 142.531 83.2576C142.531 83.2576 141.673 83.5123 140.731 83.8556C139.79 84.1988 138.074 84.7968 137.819 85.1401C137.564 85.4833 138.162 86.6847 139.104 86.6847C139.817 86.6394 140.533 86.6394 141.246 86.6847C141.761 86.7678 142.016 87.2827 143.732 87.2827C145.448 87.2827 147.84 85.9096 147.84 85.9096C147.84 85.9096 155.896 89.597 160.436 90.3666C164.976 91.1361 165.662 90.1119 167.55 88.6502C169.438 87.1886 174.914 78.2028 174.488 76.4034C174.209 75.2772 173.745 74.2051 173.115 73.231" stroke="#263238" stroke-width="0.5" stroke-linecap="round" stroke-linejoin="round"/>
<path d="M149.684 83.9441C147.442 83.5787 145.476 83.2188 144.751 83.0749C143.466 82.8147 141.069 82.1282 140.554 82.56C140.039 82.9919 140.383 82.9033 140.986 83.1579C141.485 83.3103 142.012 83.3407 142.525 83.2465C142.525 83.2465 141.667 83.5012 140.726 83.8445C139.785 84.1877 138.068 84.7857 137.814 85.129C137.559 85.4722 138.157 86.6736 139.098 86.6736C139.812 86.6283 140.527 86.6283 141.241 86.6736C141.756 86.7567 142.01 87.2716 143.727 87.2716C145.443 87.2716 147.835 85.8985 147.835 85.8985C147.835 85.8985 148.466 86.1864 149.468 86.6183L149.684 83.9441Z" fill="white" stroke="#263238" stroke-width="0.5" stroke-linecap="round" stroke-linejoin="round"/>
<path d="M144.153 62.9385C144.153 62.9385 140.128 64.9095 138.583 66.2604C137.039 67.6113 133.185 76.2815 133.102 76.8795C133.019 77.4774 136.014 77.8262 136.358 77.6546C136.701 77.483 142.786 70.4571 144.325 69.2557C144.75 68.9788 145.067 68.5644 145.223 68.0816C145.38 67.5989 145.365 67.0771 145.183 66.6037" fill="#263238"/>
<path d="M144.153 62.9385C144.153 62.9385 140.128 64.9095 138.583 66.2604C137.039 67.6113 133.185 76.2815 133.102 76.8795C133.019 77.4774 136.014 77.8262 136.358 77.6546C136.701 77.483 142.786 70.4571 144.325 69.2557C144.75 68.9788 145.067 68.5644 145.223 68.0816C145.38 67.5989 145.365 67.0771 145.183 66.6037" stroke="#263238" stroke-width="0.5" stroke-linecap="round" stroke-linejoin="round"/>
<path d="M134.558 75.1079C133.283 75.3775 132.024 75.7195 130.788 76.1321C129.758 76.564 127.36 79.6478 127.958 79.8195C128.556 79.9911 130.173 78.0201 130.173 78.0201C129.604 78.8262 129.116 79.6868 128.717 80.589C128.545 81.2756 128.374 82.8037 129.06 82.56C129.747 82.3164 131.114 80.4174 131.114 80.4174C131.114 80.4174 132.825 79.3876 134.198 79.3876C135.571 79.3876 136.512 76.8187 136.512 76.8187C136.512 76.8187 137.62 75.7113 137.199 74.5044C136.778 73.2974 134.558 75.1079 134.558 75.1079Z" fill="white" stroke="#263238" stroke-width="0.5" stroke-linecap="round" stroke-linejoin="round"/>
<path d="M136.872 74.4213C136.534 74.4351 136.196 74.3726 135.885 74.2384C135.573 74.1043 135.296 73.9019 135.073 73.6462C134.387 72.7936 133.966 73.6462 133.966 74.5043C133.976 74.7543 134.064 74.9949 134.217 75.1932C134.369 75.3914 134.579 75.5376 134.818 75.6117C134.818 75.6117 133.362 76.9847 134.22 77.411C134.504 77.5232 134.811 77.5587 135.113 77.514C135.414 77.4693 135.698 77.3459 135.937 77.1563" fill="white"/>
<path d="M136.872 74.4213C136.534 74.4351 136.196 74.3726 135.885 74.2384C135.573 74.1043 135.296 73.9019 135.073 73.6462C134.387 72.7936 133.966 73.6462 133.966 74.5043C133.976 74.7543 134.064 74.9949 134.217 75.1932C134.369 75.3914 134.579 75.5376 134.818 75.6117C134.818 75.6117 133.362 76.9847 134.22 77.411C134.504 77.5232 134.811 77.5587 135.113 77.514C135.414 77.4693 135.698 77.3459 135.937 77.1563" stroke="#263238" stroke-width="0.5" stroke-linecap="round" stroke-linejoin="round"/>
<path d="M166.991 96.7557C166.991 96.7557 162.745 95.9473 161.228 95.6484C159.711 95.3494 154.755 97.3702 153.344 97.863C151.932 98.3557 153.344 98.7765 154.861 99.0755C156.378 99.3745 159.406 98.7765 159.406 98.7765C159.406 98.7765 156.084 100.188 156.881 100.393C157.679 100.598 159.306 100.188 160.724 100.089C162.141 99.989 163.553 98.6713 163.553 98.6713C163.553 98.6713 170.33 101.993 171.138 101.993C171.946 101.993 173.159 99.5682 171.437 98.555C170.018 97.8105 168.529 97.2078 166.991 96.7557Z" fill="white" stroke="#263238" stroke-width="0.5" stroke-linecap="round" stroke-linejoin="round"/>
<path d="M168.508 100.482C165.854 102.492 163.504 104.875 161.532 107.558C158.598 111.704 158.094 120.092 158.703 122.506C159.312 124.92 159.711 127.76 162.645 129.704C165.579 131.647 167.7 132.433 172.755 129.704C177.81 126.974 180.439 117.878 179.952 110.879C179.465 103.881 175.202 99.0479 172.976 98.4444C170.75 97.8409 168.508 100.482 168.508 100.482Z" fill="white" stroke="#263238" stroke-width="0.5" stroke-linecap="round" stroke-linejoin="round"/>
<path d="M168.818 101.794C168.818 101.794 166.996 101.999 166.088 103.211C165.18 104.424 165.479 104.828 166.088 105.132C166.279 105.255 166.44 105.417 166.562 105.609C166.683 105.8 166.762 106.015 166.792 106.24C166.792 106.24 164.671 109.678 165.784 110.381C166.897 111.084 171.846 108.764 173.164 107.059C174.482 105.354 173.873 102.508 173.064 101.7C172.256 100.891 168.818 101.794 168.818 101.794Z" fill="white" stroke="#263238" stroke-width="0.5" stroke-linecap="round" stroke-linejoin="round"/>
<path d="M167.595 88.6557C167.009 89.3527 166.329 89.964 165.574 90.4717C164.765 90.8759 163.758 91.2801 164.566 91.8891C165.028 92.2282 165.466 92.5982 165.878 92.9964C165.878 92.9964 164.865 96.3183 165.275 98.2506C165.311 98.4974 165.399 98.7337 165.534 98.9433C165.669 99.1529 165.848 99.331 166.058 99.4654C166.268 99.5999 166.505 99.6875 166.752 99.7225C166.999 99.7574 167.25 99.7388 167.489 99.6679C167.489 99.6679 167.185 104.723 166.781 106.24C166.377 107.757 168.298 107.652 169.815 106.744C171.332 105.836 171.537 102.093 172.14 99.3634C172.744 96.6339 176.387 93.4006 173.862 90.3665C171.337 87.3325 167.595 88.6557 167.595 88.6557Z" fill="white" stroke="#263238" stroke-width="0.5" stroke-linecap="round" stroke-linejoin="round"/>
<path d="M184.077 85.2176C180.334 81.3752 174.665 82.2832 173.867 82.4881C173.867 82.4881 170.712 81.7185 168.885 82.023C167.058 82.3275 166.377 87.5595 167.489 90.4718C167.886 91.5172 168.636 92.3908 169.61 92.9411C169.427 92.7805 168.348 91.7618 169.388 90.9534C170.007 90.4461 170.741 90.0999 171.526 89.9458C171.526 89.9458 170.645 92.8359 171.022 93.3452C172.561 95.3937 165.64 105.055 165.369 104.9C165.369 104.9 167.39 106.041 169.92 107.253C175.506 109.938 182.1 104.208 184.171 99.369C185.821 95.5488 187.41 88.6392 184.077 85.2176Z" fill="#263238" stroke="#263238" stroke-width="0.5" stroke-linecap="round" stroke-linejoin="round"/>
<path d="M129.641 99.6237L124.537 120.978L134.979 125.734L138.926 105.658L129.641 99.6237Z" fill="white" stroke="#263238" stroke-width="0.5" stroke-linecap="round" stroke-linejoin="round"/>
<path d="M129.996 101.833L125.755 119.577L134.431 123.53L137.714 106.843L129.996 101.833Z" fill="#263238" stroke="#263238" stroke-width="0.5" stroke-linecap="round" stroke-linejoin="round"/>
<path d="M138.927 105.659L153.2 106.356L150.415 126.897L134.979 125.734L138.927 105.659Z" fill="white" stroke="#263238" stroke-width="0.5" stroke-linecap="round" stroke-linejoin="round"/>
<path d="M143.129 114.783L144.164 114.827L144.269 114.163L143.25 114.091L143.129 114.783Z" fill="#263238"/>
<path d="M145.532 119.444L145.698 118.431L144.258 118.365L144.103 119.345L145.532 119.444Z" fill="#263238"/>
<path d="M142.985 111.876L143.112 111.162L141.816 111.073L141.684 111.821L142.985 111.876Z" fill="#263238"/>
<path d="M143.627 111.909L144.612 111.953L144.718 111.278L143.749 111.212L143.627 111.909Z" fill="#263238"/>
<path d="M142.863 116.338L143.915 116.416L144.064 115.458L143.018 115.414L142.863 116.338Z" fill="#263238"/>
<path d="M146.478 113.675L146.644 112.684L145.155 112.612L145.005 113.576L146.478 113.675Z" fill="#263238"/>
<path d="M142.193 108.947L143.483 109.008L143.671 107.901L142.392 107.834L142.193 108.947Z" fill="#263238"/>
<path d="M145.061 109.08L145.233 107.984L144.313 107.934L144.125 109.036L145.061 109.08Z" fill="#263238"/>
<path d="M142.082 109.578L141.927 110.447L143.217 110.536L143.372 109.634L142.082 109.578Z" fill="#263238"/>
<path d="M144.518 112.585L143.516 112.54L143.355 113.459L144.369 113.531L144.518 112.585Z" fill="#263238"/>
<path d="M144.967 109.711L144.014 109.667L143.854 110.581L144.817 110.647L144.967 109.711Z" fill="#263238"/>
<path d="M146.007 116.56L146.173 115.558L144.706 115.491L144.557 116.46L146.007 116.56Z" fill="#263238"/>
<path d="M140.155 116.787L139.098 116.715L138.959 117.484L140.022 117.534L140.155 116.787Z" fill="#263238"/>
<path d="M139.912 118.166L138.849 118.116L138.705 118.963L139.757 119.04L139.912 118.166Z" fill="#263238"/>
<path d="M139.646 119.666L138.594 119.594L138.461 120.358L139.513 120.408L139.646 119.666Z" fill="#263238"/>
<path d="M139.402 121.039L138.345 120.989L138.195 121.842L139.242 121.919L139.402 121.039Z" fill="#263238"/>
<path d="M140.421 115.292L139.352 115.242L139.208 116.084L140.266 116.161L140.421 115.292Z" fill="#263238"/>
<path d="M140.93 112.419L139.856 112.369L139.712 113.205L140.781 113.277L140.93 112.419Z" fill="#263238"/>
<path d="M141.446 109.545L140.361 109.495L140.217 110.326L141.291 110.398L141.446 109.545Z" fill="#263238"/>
<path d="M140.665 113.908L139.602 113.836L139.464 114.611L140.532 114.661L140.665 113.908Z" fill="#263238"/>
<path d="M141.18 111.029L140.106 110.951L139.967 111.738L141.041 111.787L141.18 111.029Z" fill="#263238"/>
<path d="M147.115 109.811L145.603 109.739L145.454 110.691L146.954 110.796L147.115 109.811Z" fill="#263238"/>
<path d="M139.131 122.545L138.09 122.473L137.88 123.647L138.921 123.752L139.131 122.545Z" fill="#263238"/>
<path d="M144.806 114.86L146.273 114.927L146.379 114.307L144.906 114.207L144.806 114.86Z" fill="#263238"/>
<path d="M143.903 120.607L145.332 120.673L145.432 120.07L144.003 119.97L143.903 120.607Z" fill="#263238"/>
<path d="M144.352 117.734L145.803 117.8L145.902 117.191L144.457 117.091L144.352 117.734Z" fill="#263238"/>
<path d="M143.821 117.042L142.752 116.97L142.63 117.656L143.716 117.706L143.821 117.042Z" fill="#263238"/>
<path d="M145.227 121.305L143.809 121.238L143.654 122.224L145.061 122.323L145.227 121.305Z" fill="#263238"/>
<path d="M143.555 122.855L143.344 124.2L144.729 124.339L144.956 122.955L143.555 122.855Z" fill="#263238"/>
<path d="M141.418 113.327L142.719 113.415L142.879 112.507L141.573 112.452L141.418 113.327Z" fill="#263238"/>
<path d="M141.556 108.914L141.756 107.801L140.665 107.746L140.471 108.87L141.556 108.914Z" fill="#263238"/>
<path d="M145.255 111.981L146.75 112.053L146.849 111.428L145.354 111.322L145.255 111.981Z" fill="#263238"/>
<path d="M145.703 109.108L147.22 109.18L147.397 108.095L145.869 108.017L145.703 109.108Z" fill="#263238"/>
<path d="M143.616 118.337L142.525 118.282L142.359 119.217L143.466 119.295L143.616 118.337Z" fill="#263238"/>
<path d="M141.883 118.254L140.549 118.193L140.394 119.085L141.722 119.173L141.883 118.254Z" fill="#263238"/>
<path d="M142.253 119.849L142.137 120.524L143.267 120.579L143.372 119.926L142.253 119.849Z" fill="#263238"/>
<path d="M143.167 121.211L142.026 121.155L141.86 122.102L143.017 122.179L143.167 121.211Z" fill="#263238"/>
<path d="M139.884 121.964L141.224 122.058L141.385 121.128L140.039 121.067L139.884 121.964Z" fill="#263238"/>
<path d="M141.617 119.804L140.283 119.71L140.156 120.435L141.495 120.496L141.617 119.804Z" fill="#263238"/>
<path d="M140.665 117.562L141.993 117.623L142.115 116.925L140.792 116.831L140.665 117.562Z" fill="#263238"/>
<path d="M139.768 122.589L139.552 123.813L140.898 123.951L141.119 122.683L139.768 122.589Z" fill="#263238"/>
<path d="M142.918 122.811L141.755 122.728L141.534 124.018L142.713 124.134L142.918 122.811Z" fill="#263238"/>
<path d="M142.614 114.046L141.307 113.952L141.174 114.689L142.492 114.749L142.614 114.046Z" fill="#263238"/>
<path d="M142.381 115.381L141.063 115.32L140.903 116.205L142.221 116.294L142.381 115.381Z" fill="#263238"/>
<path d="M169.012 118.78C169.012 118.78 167.711 118.902 165.496 120.701C163.282 122.501 154.478 137.864 154.478 137.864C154.478 137.864 146.489 132.882 144.468 131.497C142.448 130.113 140.831 127.555 139.718 126.038C138.605 124.521 138.4 124.317 136.883 124.217C135.366 124.117 134.259 123.11 134.054 123.813C133.849 124.516 134.458 124.826 134.862 125.025C135.216 125.161 135.591 125.23 135.97 125.23C135.016 125.374 134.043 125.157 133.24 124.621C131.723 123.713 131.319 123.514 131.319 124.521C131.319 125.529 132.426 127.151 133.24 128.159C134.054 129.167 138.699 129.576 138.699 129.576C140.385 132.831 142.277 135.975 144.363 138.988C147.392 143.235 153.864 147.786 155.685 147.177C157.507 146.568 167.107 134.543 169.737 131.204C172.367 127.865 175.827 123.923 174.991 121.703" fill="white"/>
<path d="M169.012 118.78C169.012 118.78 167.711 118.902 165.496 120.701C163.282 122.501 154.478 137.864 154.478 137.864C154.478 137.864 146.489 132.882 144.468 131.497C142.448 130.113 140.831 127.555 139.718 126.038C138.605 124.521 138.4 124.317 136.883 124.217C135.366 124.117 134.259 123.11 134.054 123.813C133.849 124.516 134.458 124.826 134.862 125.025C135.216 125.161 135.591 125.23 135.97 125.23C135.016 125.374 134.043 125.157 133.24 124.621C131.723 123.713 131.319 123.514 131.319 124.521C131.319 125.529 132.426 127.151 133.24 128.159C134.054 129.167 138.699 129.576 138.699 129.576C140.385 132.831 142.277 135.975 144.363 138.988C147.392 143.235 153.864 147.786 155.685 147.177C157.507 146.568 167.107 134.543 169.737 131.204C172.367 127.865 175.827 123.923 174.991 121.703" stroke="#263238" stroke-width="0.5" stroke-linecap="round" stroke-linejoin="round"/>
<path d="M141.722 128.818C140.931 127.827 140.25 126.814 139.696 126.049C138.589 124.532 138.378 124.328 136.861 124.228C135.344 124.128 134.237 123.121 134.032 123.824C133.827 124.527 134.436 124.837 134.841 125.036C135.194 125.172 135.569 125.242 135.948 125.241C134.994 125.385 134.021 125.168 133.218 124.632C131.701 123.724 131.297 123.525 131.297 124.532C131.297 125.54 132.404 127.162 133.218 128.17C134.032 129.178 138.677 129.587 138.677 129.587C138.677 129.587 138.882 129.986 139.231 130.634C139.888 129.821 140.747 129.195 141.722 128.818Z" fill="white" stroke="#263238" stroke-width="0.5" stroke-linecap="round" stroke-linejoin="round"/>
</svg>
